<?xml version="1.0" standalone="no"?>
<!DOCTYPE svg PUBLIC "-//W3C//DTD SVG 20010904//EN"
 "http://www.w3.org/TR/2001/REC-SVG-20010904/DTD/svg10.dtd">
<svg version="1.0" xmlns="http://www.w3.org/2000/svg"
 width="640.000000pt" height="548.000000pt" viewBox="0 0 640.000000 548.000000"
 preserveAspectRatio="xMidYMid meet">

<g transform="translate(0.000000,548.000000) scale(0.100000,-0.100000)"
fill="#18267d" stroke="none">
<path d="M2945 5369 c-115 -11 -337 -48 -349 -59 -5 -5 1 -52 14 -109 13 -56
21 -103 19 -106 -3 -2 -59 -20 -124 -40 -66 -20 -172 -58 -235 -86 -63 -27
-119 -51 -125 -52 -5 -1 -33 42 -60 95 l-51 98 -94 -53 c-271 -150 -562 -396
-728 -614 l-62 -82 85 -63 c47 -34 85 -66 85 -70 0 -4 -31 -55 -69 -112 -38
-58 -95 -157 -128 -221 -32 -63 -63 -115 -69 -115 -6 0 -53 18 -104 41 -50 22
-93 39 -94 37 -7 -7 -69 -175 -91 -246 -70 -223 -104 -431 -112 -696 l-6 -199
116 8 117 7 0 -25 c0 -23 -9 -28 -123 -66 -117 -39 -127 -41 -247 -41 -96 0
-155 -6 -250 -26 -68 -14 -128 -28 -132 -30 -4 -3 -1 -16 7 -28 13 -20 15 -63
13 -275 -2 -162 1 -251 7 -251 6 0 10 92 10 255 0 140 -3 255 -7 255 -5 0 -8
5 -8 10 0 6 87 10 240 10 205 0 241 2 246 15 5 13 42 15 245 15 204 0 240 -2
245 -15 5 -13 43 -15 251 -15 201 0 243 -2 235 -13 -16 -19 -21 -516 -5 -510
6 3 16 -5 23 -16 l11 -21 -751 0 -750 0 0 -25 0 -25 350 0 c253 0 350 -3 350
-11 0 -21 136 -283 197 -381 70 -111 181 -260 248 -332 l47 -50 -156 -403
c-86 -221 -156 -405 -156 -408 0 -3 333 -5 740 -5 622 0 740 -2 740 -14 0 -7
-11 -38 -24 -67 -13 -30 -27 -64 -31 -76 l-6 -23 725 0 c399 0 726 2 726 4 0
2 -16 41 -35 86 -19 45 -35 84 -35 86 0 2 335 4 745 4 l745 0 -24 62 c-103
271 -269 700 -282 730 -9 20 -22 34 -28 32 -7 -3 -48 8 -92 24 -89 33 -101 52
-59 92 l25 23 28 -24 c15 -13 50 -46 79 -73 61 -58 51 -62 158 65 135 161 281
398 369 597 l27 62 355 0 354 0 0 25 0 25 -755 0 c-753 0 -756 0 -745 20 11
21 -1 57 -24 72 -22 15 -55 7 -74 -17 -11 -14 -23 -25 -26 -25 -3 0 -6 104 -6
230 l0 230 75 0 75 0 0 -240 c0 -132 3 -240 8 -240 4 0 6 111 4 247 -2 194 0
248 10 254 16 11 1 12 -99 9 l-73 -2 0 139 0 139 31 18 c16 10 28 23 26 29 -2
7 -76 23 -173 39 -163 26 -184 27 -576 27 l-407 1 -4 68 c-2 37 -4 -81 -6
-263 -1 -181 -5 -324 -8 -317 -3 8 -24 11 -61 10 l-57 -2 52 -3 c50 -4 51 -5
50 -34 l-2 -30 118 -1 c65 0 120 2 124 5 17 18 -18 27 -108 27 l-100 0 2 230
1 230 566 0 c501 -1 565 -2 548 -15 -17 -13 -103 -15 -560 -17 l-541 -3 488
-2 487 -3 0 -385 0 -385 -52 -2 c-46 -1 -48 -2 -14 -5 22 -3 49 -2 60 1 21 5
21 8 21 368 l0 363 40 0 40 0 3 -354 c2 -265 -1 -357 -10 -368 -9 -12 -9 -14
3 -13 26 4 37 0 43 -15 5 -13 -50 -15 -458 -15 l-464 0 -10 28 c-7 17 -11 21
-11 10 -1 -11 -9 -18 -21 -18 -19 0 -20 7 -20 110 0 103 1 110 20 110 18 0 20
-7 22 -87 l2 -88 6 95 c4 52 10 105 15 118 5 16 3 22 -6 23 -79 3 -233 -2
-238 -8 -3 -4 -129 -9 -278 -9 l-273 -1 0 51 c0 61 -9 98 -21 90 -5 -3 -9 136
-9 325 l0 331 38 1 c20 1 44 2 52 3 8 1 23 -2 33 -7 16 -7 17 -33 17 -327 l0
-319 -27 -4 c-16 -2 55 -4 157 -3 180 0 181 1 33 3 l-153 4 0 327 0 327 155 0
c85 0 155 -4 155 -8 0 -5 8 -6 18 -3 29 10 116 11 130 3 6 -5 12 -4 12 1 0 6
20 19 45 31 25 12 45 23 45 26 0 3 -15 5 -32 4 -28 0 -30 -2 -13 -9 16 -7 14
-9 -15 -9 -26 -1 -31 -4 -20 -11 10 -6 -71 -10 -240 -11 -354 -1 -415 1 -418
12 -2 5 -13 9 -25 10 -21 0 -21 1 -2 9 17 7 15 9 -12 9 -18 1 -33 -1 -33 -2 0
-2 20 -14 45 -27 l45 -23 0 -79 0 -78 -392 0 c-380 1 -399 0 -575 -27 -150
-23 -183 -31 -183 -44 0 -9 11 -21 25 -27 25 -12 25 -12 25 -152 l0 -140 -65
0 c-64 0 -65 1 -59 24 5 22 2 24 -85 41 -83 16 -92 20 -99 44 -4 14 -7 123 -7
241 0 251 13 342 80 545 81 250 212 467 393 657 261 271 570 438 957 515 125
25 461 25 592 0 928 -175 1535 -997 1426 -1934 l-6 -51 -88 -17 c-61 -12 -89
-22 -89 -31 0 -22 508 -21 516 1 9 23 479 23 488 0 5 -13 41 -15 246 -15 169
0 240 -3 240 -11 0 -6 -7 -8 -16 -5 -14 5 -15 4 -5 -8 8 -10 11 -81 9 -252 -3
-217 -1 -241 15 -257 14 -14 17 -14 17 -2 0 8 -5 15 -10 15 -17 0 -9 512 8
518 6 2 12 9 12 16 0 7 -51 22 -128 39 -102 21 -155 27 -256 27 -121 0 -132 2
-251 41 -69 22 -125 44 -125 50 0 5 47 9 109 9 l108 0 6 86 c12 174 -23 496
-78 705 -33 125 -107 330 -121 336 -6 2 -54 -14 -106 -35 l-95 -40 -56 117
c-31 64 -87 163 -124 221 -38 58 -72 110 -76 116 -3 6 29 37 78 73 47 33 85
66 85 71 0 20 -164 211 -271 315 -118 114 -230 205 -359 292 -84 56 -260 157
-265 152 -1 -2 -24 -46 -49 -98 -37 -72 -51 -92 -64 -88 -9 3 -72 28 -140 56
-67 28 -172 65 -232 83 -126 37 -121 29 -90 148 11 41 20 82 20 91 0 12 -27
20 -127 37 -237 41 -462 51 -678 31z m563 -157 c23 -5 46 -12 49 -16 3 -3 -2
-51 -12 -106 -9 -56 -16 -102 -14 -104 2 -2 45 -11 94 -20 137 -26 349 -101
506 -177 78 -38 143 -68 144 -67 1 2 24 42 50 91 27 48 53 87 58 87 16 0 196
-123 288 -196 84 -67 319 -299 319 -314 0 -5 -36 -38 -80 -75 -44 -37 -80 -69
-80 -71 0 -3 24 -35 53 -72 111 -140 235 -358 298 -522 17 -47 33 -86 34 -88
1 -1 46 14 100 33 54 20 102 32 106 28 13 -13 67 -217 89 -332 21 -116 40
-293 40 -383 l0 -58 -110 0 -110 0 0 -79 c0 -129 -4 -138 -65 -156 -29 -8 -89
-15 -133 -15 l-79 0 5 184 c9 323 -37 560 -163 848 -196 447 -591 818 -1055
991 -224 83 -422 119 -665 120 -402 1 -774 -118 -1110 -355 -112 -79 -322
-286 -405 -398 -215 -292 -336 -610 -371 -970 -11 -117 -7 -340 7 -397 6 -23
5 -23 -82 -22 -113 1 -188 24 -191 60 -1 13 -5 68 -8 121 l-7 97 -105 3 -106
3 2 90 c2 107 25 278 51 395 32 137 73 272 85 276 9 4 95 -24 186 -61 13 -5
22 8 45 67 63 166 181 372 300 525 l64 81 -80 68 c-44 37 -80 72 -80 77 0 17
200 215 295 292 93 75 279 205 294 205 5 0 32 -40 60 -90 29 -49 54 -90 56
-90 2 0 51 24 109 54 58 30 154 73 213 96 102 40 356 110 397 110 20 0 20 1
-8 147 l-14 73 32 5 c104 19 187 23 411 20 138 -2 269 -8 293 -13z m-650
-2414 c-4 -10 -124 -14 -547 -16 -470 -2 -545 0 -564 13 -19 13 37 15 547 15
450 0 567 -3 564 -12z m2 -238 l0 -210 -99 0 c-79 0 -100 -3 -105 -15 -3 -9 0
-15 9 -15 19 0 19 -39 0 -60 -13 -14 -12 -19 1 -45 19 -37 17 -223 -2 -242
-10 -10 -118 -13 -474 -13 l-461 0 12 21 c9 18 7 26 -8 48 -27 36 -65 39 -91
7 -11 -15 -23 -26 -26 -26 -3 0 -6 104 -6 230 l0 230 75 0 75 0 2 -242 c2
-221 3 -209 8 127 l5 370 40 0 40 0 5 -365 5 -365 3 388 2 387 495 0 495 0 0
-210z m-1005 190 c-3 -5 -21 -10 -40 -10 -19 0 -37 5 -40 10 -4 6 12 10 40 10
28 0 44 -4 40 -10z m2720 0 c-3 -5 -21 -10 -40 -10 -19 0 -37 5 -40 10 -4 6
12 10 40 10 28 0 44 -4 40 -10z m-985 -413 l105 -3 -112 -2 c-102 -2 -113 0
-113 16 0 12 3 13 8 5 5 -8 44 -13 112 -16z m-757 -4 c-29 -2 -78 -2 -110 0
-32 2 -8 3 52 3 61 0 87 -1 58 -3z m55 -40 l-3 -28 -97 -3 -98 -3 0 31 0 30
101 0 100 0 -3 -27z m-185 -50 c-7 -2 -19 -2 -25 0 -7 3 -2 5 12 5 14 0 19 -2
13 -5z m145 0 c-21 -2 -55 -2 -75 0 -21 2 -4 4 37 4 41 0 58 -2 38 -4z m755 0
c-18 -2 -48 -2 -65 0 -18 2 -4 4 32 4 36 0 50 -2 33 -4z m74 1 c-3 -3 -12 -4
-19 -1 -8 3 -5 6 6 6 11 1 17 -2 13 -5z m-937 -24 c0 -5 -16 -10 -36 -10 -21
0 -33 4 -29 10 3 6 19 10 36 10 16 0 29 -4 29 -10z m195 0 c4 -6 -8 -10 -29
-10 -20 0 -36 5 -36 10 0 6 13 10 29 10 17 0 33 -4 36 -10z m185 0 c0 -5 -16
-10 -35 -10 -19 0 -35 5 -35 10 0 6 16 10 35 10 19 0 35 -4 35 -10z m180 0 c0
-5 -16 -10 -36 -10 -21 0 -33 4 -29 10 3 6 19 10 36 10 16 0 29 -4 29 -10z
m185 0 c4 -6 -8 -10 -29 -10 -20 0 -36 5 -36 10 0 6 13 10 29 10 17 0 33 -4
36 -10z m190 0 c4 -6 -8 -10 -29 -10 -20 0 -36 5 -36 10 0 6 13 10 29 10 17 0
33 -4 36 -10z m-947 -127 c-3 -93 -5 -108 -20 -111 -16 -3 -18 7 -18 107 0
105 1 111 20 111 20 0 21 -5 18 -107z m192 -3 c0 -103 -1 -110 -20 -110 -19 0
-20 7 -20 110 0 103 1 110 20 110 19 0 20 -7 20 -110z m180 0 c0 -103 -1 -110
-20 -110 -19 0 -20 7 -20 110 0 103 1 110 20 110 19 0 20 -7 20 -110z m190 0
c0 -103 -1 -110 -20 -110 -19 0 -20 7 -20 110 0 103 1 110 20 110 19 0 20 -7
20 -110z m180 -1 c0 -100 -2 -110 -17 -107 -16 3 -18 18 -21 111 -3 102 -2
107 18 107 19 0 20 -6 20 -111z m-1756 -55 c18 -17 21 -59 6 -69 -6 -3 -5 -15
2 -30 l11 -25 253 0 c231 0 253 -1 247 -16 -4 -10 1 -22 11 -29 14 -11 26 -8
74 16 74 36 162 59 231 59 l56 0 -44 -23 c-55 -30 -73 -57 -36 -57 14 0 25 -5
25 -11 0 -7 -12 -10 -30 -7 -19 3 -29 1 -27 -6 6 -17 40 -18 77 -2 28 12 31
15 13 16 -14 0 -23 6 -23 15 0 12 15 15 75 15 59 0 75 -3 75 -14 0 -11 -15
-16 -52 -19 -29 -2 177 -3 457 -3 l510 1 -452 2 c-395 3 -453 5 -453 18 0 13
65 15 535 15 462 -1 535 -3 535 -15 0 -12 -16 -15 -67 -17 l-68 -1 65 -8 c36
-4 80 -11 97 -14 70 -15 48 56 -29 94 l-43 21 55 0 c70 0 158 -23 232 -59 48
-24 60 -27 74 -16 10 7 15 19 11 29 -6 15 16 16 247 16 l253 0 12 27 c8 18 9
29 1 37 -17 17 -11 45 14 61 19 13 56 12 56 -1 0 -5 -77 -131 -103 -168 -140
-199 -358 -398 -565 -515 l-74 -41 -291 0 -292 0 -95 -30 c-52 -16 -104 -30
-115 -30 -11 0 -65 14 -119 30 l-99 30 -281 0 -281 0 -80 46 c-242 138 -468
358 -614 597 -44 73 -48 83 -28 90 22 10 35 7 51 -9z m1019 -71 c-13 -2 -33
-2 -45 0 -13 2 -3 4 22 4 25 0 35 -2 23 -4z m190 0 c-13 -2 -33 -2 -45 0 -13
2 -3 4 22 4 25 0 35 -2 23 -4z m180 0 c-13 -2 -33 -2 -45 0 -13 2 -3 4 22 4
25 0 35 -2 23 -4z m190 0 c-13 -2 -33 -2 -45 0 -13 2 -3 4 22 4 25 0 35 -2 23
-4z m180 0 c-13 -2 -33 -2 -45 0 -13 2 -3 4 22 4 25 0 35 -2 23 -4z m195 0
c-10 -2 -28 -2 -40 0 -13 2 -5 4 17 4 22 1 32 -1 23 -4z m-2034 -28 c-5 -13
-97 -15 -745 -15 -650 0 -739 2 -739 15 0 13 89 15 745 15 658 0 744 -2 739
-15z m711 -1 c-42 -9 -141 -13 -331 -14 -233 0 -273 2 -278 15 -5 13 36 15
332 14 308 -1 332 -2 277 -15z m1195 1 c0 -13 -53 -15 -452 -14 -386 1 -449 3
-423 14 23 11 124 14 453 14 372 1 422 -1 422 -14z m162 -3 c9 -9 -6 -12 -70
-12 -69 0 -82 3 -82 16 0 14 11 16 70 12 38 -2 75 -9 82 -16z m916 6 c-7 -20
-522 -23 -608 -4 -61 13 -44 14 273 15 267 1 338 -2 335 -11z m1592 -3 c0 -13
-89 -15 -745 -15 -656 0 -745 2 -745 15 0 13 89 15 745 15 656 0 745 -2 745
-15z m-4644 -72 c87 -152 292 -380 442 -493 l72 -55 -182 -5 c-101 -3 -190 -9
-199 -13 -13 -6 -37 15 -105 90 -48 54 -91 100 -96 101 -4 2 -44 -27 -89 -64
-44 -37 -84 -63 -88 -58 -30 34 -107 144 -158 224 -60 95 -163 290 -163 310 0
6 93 10 269 10 l269 0 28 -47z m2024 37 c0 -7 -172 -10 -507 -10 -326 0 -503
4 -493 10 21 13 1000 13 1000 0z m175 0 c4 -6 -25 -10 -79 -10 -51 0 -86 4
-86 10 0 6 33 10 79 10 44 0 83 -4 86 -10z m1585 5 c0 -14 -108 -218 -157
-297 -63 -102 -170 -248 -182 -248 -5 0 -42 27 -84 60 -41 33 -78 60 -81 60
-4 0 -48 -43 -99 -97 l-93 -96 -34 11 c-20 7 -98 12 -197 12 l-165 0 64 47
c149 112 327 305 428 465 l55 87 273 1 c149 0 272 -2 272 -5z m-3065 -15 c3
-5 -3 -10 -14 -10 -12 0 -21 5 -21 10 0 6 6 10 14 10 8 0 18 -4 21 -10z m1820
0 c3 -5 -3 -10 -14 -10 -12 0 -21 5 -21 10 0 6 6 10 14 10 8 0 18 -4 21 -10z
m-255 -40 c0 -5 -11 -10 -25 -10 -14 0 -25 5 -25 10 0 6 11 10 25 10 14 0 25
-4 25 -10z m-2331 -587 c18 -22 20 -29 8 -46 -21 -31 -187 -93 -187 -70 0 9
142 142 152 143 4 0 16 -12 27 -27z m191 -1 c0 -4 -36 -107 -81 -227 -44 -121
-95 -262 -114 -312 l-33 -93 744 0 c438 0 744 -4 744 -9 0 -5 -13 -39 -30 -76
-16 -37 -30 -71 -30 -76 0 -5 109 -9 255 -9 140 0 255 1 255 3 0 1 -16 40 -35
85 l-34 82 744 0 c410 0 745 3 745 8 0 4 -51 147 -114 317 -62 171 -110 311
-106 313 4 2 41 -10 81 -25 l72 -28 128 -340 127 -340 -754 -3 c-439 -1 -754
-6 -754 -11 0 -5 13 -38 29 -73 15 -35 32 -74 35 -86 l7 -22 -425 0 c-250 0
-426 4 -426 9 0 5 16 46 35 91 19 45 35 84 35 86 0 2 -340 4 -756 4 -601 0
-755 3 -751 13 2 6 60 162 128 344 l124 333 70 24 c80 28 85 29 85 18z m1348
-34 l103 -32 104 32 104 32 609 0 610 0 71 -192 c39 -106 88 -240 109 -298
l39 -105 -748 -5 -748 -5 35 -79 c19 -44 34 -83 34 -88 0 -4 -99 -8 -220 -8
l-219 0 34 82 c19 45 35 86 35 90 0 4 -336 8 -746 8 -707 0 -746 1 -739 18 4
9 49 132 100 272 51 140 98 267 104 283 l11 27 607 0 607 0 104 -32z m-1558
-76 c0 -5 -53 -151 -119 -326 -75 -201 -114 -319 -107 -322 6 -2 345 -3 754
-2 408 2 742 0 742 -4 0 -3 -16 -43 -35 -88 -19 -45 -35 -84 -35 -86 0 -2 209
-5 465 -6 256 -2 465 -2 465 -1 0 1 -16 38 -35 84 -20 45 -34 86 -33 91 2 5
338 8 751 8 411 0 747 4 747 8 0 5 -54 152 -119 328 -65 175 -115 320 -110
322 5 2 25 -5 45 -15 33 -16 41 -28 71 -108 19 -49 47 -124 63 -165 102 -264
170 -444 170 -447 0 -2 -339 -3 -752 -3 -414 0 -756 0 -760 0 -4 0 8 -37 28
-81 19 -45 33 -83 31 -85 -2 -2 -256 -5 -565 -7 -411 -1 -562 1 -562 9 0 6 11
36 24 65 13 30 26 64 30 77 l7 22 -755 0 c-416 0 -756 4 -756 8 0 5 60 165
134 357 132 343 135 349 168 361 41 15 48 16 48 6z"/>
<path d="M1917 2754 c-4 -4 -7 -29 -7 -55 0 -46 1 -48 28 -45 25 3 27 6 27 52
0 42 -3 49 -20 52 -12 2 -24 0 -28 -4z"/>
<path d="M2007 2754 c-4 -4 -7 -28 -7 -53 0 -44 1 -46 31 -48 l30 -2 -3 52
c-3 44 -6 52 -23 55 -12 2 -24 0 -28 -4z"/>
<path d="M2096 2745 c-7 -20 -8 -80 -1 -87 3 -3 17 -3 31 0 23 4 25 8 22 51
-2 38 -7 47 -24 49 -13 2 -24 -4 -28 -13z"/>
<path d="M2193 2743 c-5 -10 -8 -25 -7 -33 1 -8 2 -25 3 -38 1 -19 6 -22 29
-19 21 3 28 10 30 31 6 45 -6 76 -28 76 -11 0 -23 -8 -27 -17z"/>
<path d="M2292 2748 c-7 -7 -12 -29 -12 -50 0 -32 4 -39 24 -44 34 -8 46 2 46
37 0 56 -30 85 -58 57z"/>
<path d="M2381 2746 c-7 -8 -11 -32 -9 -53 3 -35 5 -38 33 -38 28 0 30 3 33
38 3 39 -10 67 -33 67 -7 0 -18 -6 -24 -14z"/>
<path d="M2474 2746 c-3 -8 -4 -31 -2 -52 3 -34 6 -39 28 -39 20 0 26 6 28 29
6 46 -6 76 -29 76 -11 0 -22 -6 -25 -14z"/>
<path d="M2564 2746 c-3 -8 -4 -31 -2 -52 3 -34 6 -39 29 -41 24 -1 27 3 32
35 2 20 0 45 -5 55 -10 20 -46 23 -54 3z"/>
<path d="M2667 2754 c-8 -8 -10 -88 -2 -96 3 -3 17 -3 31 0 23 4 25 8 22 51
-2 37 -7 47 -23 49 -12 2 -24 0 -28 -4z"/>
<path d="M2754 2736 c-3 -13 -4 -37 -2 -52 3 -25 7 -29 33 -29 28 0 30 3 33
38 2 21 -2 45 -9 53 -18 22 -48 17 -55 -10z"/>
<path d="M1910 2581 c0 -50 1 -51 31 -51 30 0 30 1 27 48 -3 43 -5 47 -30 50
-27 3 -28 2 -28 -47z"/>
<path d="M2000 2580 c0 -49 1 -50 30 -50 29 0 30 1 30 50 0 49 -1 50 -30 50
-29 0 -30 -1 -30 -50z"/>
<path d="M2097 2623 c-4 -3 -7 -26 -7 -50 0 -41 1 -43 30 -43 29 0 30 1 30 50
0 46 -2 50 -23 50 -13 0 -27 -3 -30 -7z"/>
<path d="M2190 2581 c0 -50 1 -51 31 -51 30 0 30 1 27 48 -3 43 -5 47 -30 50
-27 3 -28 2 -28 -47z"/>
<path d="M2287 2624 c-4 -4 -7 -27 -7 -51 0 -44 0 -44 33 -41 31 3 32 5 32 48
0 41 -2 45 -25 48 -14 2 -29 0 -33 -4z"/>
<path d="M2374 2617 c-3 -8 -4 -30 -2 -49 3 -29 6 -33 33 -33 29 0 30 2 30 45
0 42 -2 45 -28 48 -17 2 -29 -2 -33 -11z"/>
<path d="M2470 2581 c0 -50 1 -51 31 -51 30 0 30 1 27 48 -3 43 -5 47 -30 50
-27 3 -28 2 -28 -47z"/>
<path d="M2567 2623 c-4 -3 -7 -26 -7 -50 0 -41 1 -43 29 -43 24 0 29 5 32 28
7 50 -1 72 -25 72 -12 0 -26 -3 -29 -7z"/>
<path d="M2660 2580 c0 -49 1 -50 30 -50 29 0 30 1 30 50 0 49 -1 50 -30 50
-29 0 -30 -1 -30 -50z"/>
<path d="M2757 2624 c-4 -4 -7 -27 -7 -51 0 -44 0 -44 33 -41 31 3 32 5 32 48
0 41 -2 45 -25 48 -14 2 -29 0 -33 -4z"/>
<path d="M1910 2455 c0 -43 1 -45 30 -45 29 0 30 2 30 45 0 43 -1 45 -30 45
-29 0 -30 -2 -30 -45z"/>
<path d="M2000 2455 c0 -43 1 -45 30 -45 29 0 30 2 30 45 0 43 -1 45 -30 45
-29 0 -30 -2 -30 -45z"/>
<path d="M2090 2455 c0 -43 1 -45 30 -45 29 0 30 2 30 45 0 43 -1 45 -30 45
-29 0 -30 -2 -30 -45z"/>
<path d="M2190 2455 c0 -43 1 -45 30 -45 29 0 30 2 30 45 0 43 -1 45 -30 45
-29 0 -30 -2 -30 -45z"/>
<path d="M2280 2454 c0 -45 0 -45 33 -42 30 3 32 6 35 46 l3 42 -35 0 c-36 0
-36 0 -36 -46z"/>
<path d="M2370 2455 c0 -45 0 -45 35 -45 35 0 35 0 35 45 0 45 0 45 -35 45
-35 0 -35 0 -35 -45z"/>
<path d="M2470 2455 c0 -43 1 -45 30 -45 29 0 30 2 30 45 0 43 -1 45 -30 45
-29 0 -30 -2 -30 -45z"/>
<path d="M2560 2454 c0 -45 0 -45 32 -42 30 3 32 5 33 46 1 41 1 42 -32 42
-33 0 -33 -1 -33 -46z"/>
<path d="M2660 2455 c0 -43 1 -45 30 -45 29 0 30 2 30 45 0 43 -1 45 -30 45
-29 0 -30 -2 -30 -45z"/>
<path d="M2750 2454 c0 -45 0 -45 33 -42 30 3 32 6 35 46 l3 42 -35 0 c-36 0
-36 0 -36 -46z"/>
<path d="M1677 2433 c-26 -4 -28 -7 -25 -45 3 -37 6 -41 31 -43 26 -1 27 1 27
47 0 26 -1 47 -2 47 -2 -1 -16 -4 -31 -6z"/>
<path d="M1910 2335 c0 -43 1 -45 30 -45 29 0 30 2 30 45 0 43 -1 45 -30 45
-29 0 -30 -2 -30 -45z"/>
<path d="M2000 2336 c0 -41 2 -44 30 -48 30 -5 30 -4 30 44 0 47 -1 48 -30 48
-29 0 -30 -2 -30 -44z"/>
<path d="M2090 2335 c0 -43 1 -45 30 -45 29 0 30 2 30 45 0 43 -1 45 -30 45
-29 0 -30 -2 -30 -45z"/>
<path d="M2190 2335 c0 -43 1 -45 30 -45 29 0 30 2 30 45 0 43 -1 45 -30 45
-29 0 -30 -2 -30 -45z"/>
<path d="M2280 2336 c0 -46 0 -46 34 -46 34 0 35 0 33 43 -2 40 -4 42 -34 45
-33 3 -33 3 -33 -42z"/>
<path d="M2370 2335 c0 -45 0 -45 35 -45 35 0 35 0 35 45 0 45 0 45 -35 45
-35 0 -35 0 -35 -45z"/>
<path d="M2470 2335 c0 -43 1 -45 30 -45 29 0 30 2 30 45 0 43 -1 45 -30 45
-29 0 -30 -2 -30 -45z"/>
<path d="M2560 2335 c0 -43 1 -45 29 -45 30 0 40 20 33 68 -3 17 -10 22 -33
22 -28 0 -29 -2 -29 -45z"/>
<path d="M1650 2275 c0 -43 1 -45 30 -45 29 0 30 2 30 45 0 43 -1 45 -30 45
-29 0 -30 -2 -30 -45z"/>
<path d="M1910 2205 c0 -43 1 -45 30 -45 29 0 30 2 30 45 0 43 -1 45 -30 45
-29 0 -30 -2 -30 -45z"/>
<path d="M2000 2205 c0 -43 1 -45 30 -45 29 0 30 2 30 45 0 43 -1 45 -30 45
-29 0 -30 -2 -30 -45z"/>
<path d="M2090 2205 c0 -43 1 -45 30 -45 29 0 30 2 30 45 0 43 -1 45 -30 45
-29 0 -30 -2 -30 -45z"/>
<path d="M2190 2205 c0 -43 1 -45 30 -45 29 0 30 2 30 45 0 43 -1 45 -30 45
-29 0 -30 -2 -30 -45z"/>
<path d="M2280 2204 c0 -45 0 -45 33 -42 30 3 32 6 35 46 l3 42 -35 0 c-36 0
-36 0 -36 -46z"/>
<path d="M2370 2205 c0 -45 0 -45 35 -45 35 0 35 0 35 45 0 45 0 45 -35 45
-35 0 -35 0 -35 -45z"/>
<path d="M2470 2205 c0 -43 1 -45 30 -45 29 0 30 2 30 45 0 43 -1 45 -30 45
-29 0 -30 -2 -30 -45z"/>
<path d="M2560 2204 c0 -45 0 -45 33 -42 17 2 31 6 30 11 -2 4 -3 23 -3 42 0
32 -2 35 -30 35 -29 0 -30 -2 -30 -46z"/>
<path d="M1652 2158 c3 -39 6 -43 31 -46 26 -3 27 -2 27 42 0 45 -1 46 -31 46
-29 0 -30 -1 -27 -42z"/>
<path d="M1910 2085 c0 -43 1 -45 30 -45 29 0 30 2 30 45 0 43 -1 45 -30 45
-29 0 -30 -2 -30 -45z"/>
<path d="M2000 2085 c0 -43 1 -45 30 -45 29 0 30 2 30 45 0 43 -1 45 -30 45
-29 0 -30 -2 -30 -45z"/>
<path d="M2090 2085 c0 -43 1 -45 30 -45 29 0 30 2 30 45 0 43 -1 45 -30 45
-29 0 -30 -2 -30 -45z"/>
<path d="M2190 2085 c0 -43 1 -45 30 -45 29 0 30 2 30 45 0 43 -1 45 -30 45
-29 0 -30 -2 -30 -45z"/>
<path d="M2280 2085 c0 -46 0 -46 33 -43 30 3 32 5 32 43 0 38 -2 40 -32 43
-33 3 -33 3 -33 -43z"/>
<path d="M2370 2085 c0 -45 0 -45 35 -45 35 0 35 0 35 45 0 45 0 45 -35 45
-35 0 -35 0 -35 -45z"/>
<path d="M2470 2085 c0 -43 1 -45 30 -45 29 0 30 2 30 45 0 43 -1 45 -30 45
-29 0 -30 -2 -30 -45z"/>
<path d="M2560 2085 c0 -43 1 -45 30 -45 29 0 30 2 30 45 0 43 -1 45 -30 45
-29 0 -30 -2 -30 -45z"/>
<path d="M1919 1997 c4 -4 41 -7 82 -5 l74 3 -82 5 c-45 3 -78 1 -74 -3z"/>
<path d="M1818 1993 c7 -3 16 -2 19 1 4 3 -2 6 -13 5 -11 0 -14 -3 -6 -6z"/>
<path d="M2133 1993 c26 -2 67 -2 90 0 23 2 2 3 -48 3 -49 0 -68 -1 -42 -3z"/>
<path d="M2293 1993 c9 -2 23 -2 30 0 6 3 -1 5 -18 5 -16 0 -22 -2 -12 -5z"/>
<path d="M2348 1993 c6 -2 18 -2 25 0 6 3 1 5 -13 5 -14 0 -19 -2 -12 -5z"/>
<path d="M2403 1993 c9 -2 23 -2 30 0 6 3 -1 5 -18 5 -16 0 -22 -2 -12 -5z"/>
<path d="M2483 1993 c15 -2 39 -2 55 0 15 2 2 4 -28 4 -30 0 -43 -2 -27 -4z"/>
<path d="M2598 1993 c12 -2 32 -2 45 0 12 2 2 4 -23 4 -25 0 -35 -2 -22 -4z"/>
<path d="M2653 1727 c-25 -17 -33 -29 -33 -54 0 -26 3 -30 20 -26 19 5 20 0
20 -106 l0 -111 -30 0 c-26 0 -30 -3 -30 -29 0 -36 6 -37 103 -33 l77 4 0 29
c0 26 -4 29 -30 29 l-30 0 0 160 c0 179 -1 182 -67 137z"/>
<path d="M2961 1728 c-30 -31 -44 -84 -38 -141 4 -41 10 -56 37 -80 22 -20 40
-27 56 -24 26 5 31 -11 14 -44 -7 -13 -21 -19 -45 -19 -26 0 -35 -5 -40 -21
-12 -38 41 -52 94 -24 83 42 103 307 28 360 -32 22 -83 19 -106 -7z m83 -54
c9 -23 7 -107 -3 -122 -14 -23 -44 -9 -53 23 -8 27 -3 89 8 107 9 14 42 8 48
-8z"/>
<path d="M3283 1735 c-23 -16 -48 -78 -38 -95 13 -21 54 -11 67 17 17 34 34
39 47 14 15 -27 0 -64 -48 -121 -57 -68 -77 -114 -72 -167 1 -10 27 -13 96
-13 l95 0 0 30 c0 29 0 29 -66 32 l-65 3 57 75 c62 82 74 107 74 151 0 67 -91
113 -147 74z"/>
<path d="M3588 1733 c-35 -41 -42 -69 -42 -173 0 -84 4 -113 19 -145 24 -48
67 -65 114 -45 44 18 61 70 61 191 0 108 -14 160 -48 178 -32 17 -87 13 -104
-6z m79 -74 c14 -26 17 -136 7 -189 -8 -38 -32 -50 -50 -25 -17 23 -19 197 -3
226 13 25 30 20 46 -12z"/>
<path d="M2115 1101 c-3 -2 -5 -80 -5 -173 l0 -168 75 0 75 0 0 70 0 70 100 0
100 0 0 -70 0 -70 80 0 80 0 0 170 c0 155 -2 170 -17 171 -10 1 -45 1 -78 1
l-60 0 -3 -66 -3 -66 -99 0 -99 0 -3 68 -3 67 -68 1 c-37 0 -70 -2 -72 -5z"/>
<path d="M3117 1104 c-4 -4 -7 -83 -7 -176 l0 -168 80 0 80 0 -2 172 -3 173
-70 3 c-39 2 -74 0 -78 -4z"/>
<path d="M3747 1104 c-4 -4 -7 -25 -7 -46 l0 -38 60 0 60 0 0 -130 0 -130 75
0 c53 0 75 4 76 13 0 6 1 64 2 127 l2 115 63 3 62 3 0 38 c0 22 -5 41 -12 44
-21 7 -373 9 -381 1z"/>
<path d="M3167 4386 c-4 -9 -13 -16 -22 -16 -21 0 -19 -36 3 -52 17 -12 18
-28 14 -215 -4 -186 -6 -203 -22 -203 -13 0 -19 -10 -23 -37 -2 -21 -1 -42 4
-47 4 -5 3 -17 -4 -26 -8 -14 -16 -16 -34 -9 -36 13 -55 1 -51 -34 2 -24 8
-31 26 -32 22 -2 37 10 37 30 0 6 28 10 64 10 35 0 66 -4 68 -10 6 -19 -15
-37 -49 -41 -30 -5 -36 -2 -47 22 -6 14 -14 24 -17 21 -3 -3 -1 -15 6 -26 6
-12 7 -21 1 -21 -5 0 -12 6 -14 13 -4 7 -8 3 -12 -10 -9 -30 -50 -31 -58 -3
-3 11 -10 20 -15 20 -6 0 -8 -9 -5 -20 3 -12 0 -20 -7 -20 -10 0 -9 -4 1 -16
7 -9 16 -50 20 -93 l6 -76 1 68 2 67 135 0 135 0 2 -72 1 -73 6 81 c4 45 13
89 20 98 10 11 10 16 2 16 -8 0 -10 8 -6 21 5 16 3 20 -6 17 -8 -3 -13 -12
-11 -22 2 -12 -5 -16 -28 -16 -23 0 -30 4 -28 16 2 10 -3 19 -9 21 -7 3 -13 0
-13 -6 0 -6 -5 -11 -10 -11 -6 0 -4 13 5 30 11 21 13 36 6 48 -5 9 -8 40 -7
69 2 46 0 52 -18 55 -20 3 -21 11 -26 200 -5 194 -5 197 18 223 23 27 22 45
-3 45 -8 0 -18 7 -23 16 -8 15 -10 15 -15 0z m53 -30 c0 -3 -4 -8 -10 -11 -5
-3 -10 -1 -10 4 0 6 5 11 10 11 6 0 10 -2 10 -4z m-35 -26 c-3 -5 -11 -10 -16
-10 -6 0 -7 5 -4 10 3 6 11 10 16 10 6 0 7 -4 4 -10z m18 -447 c-13 -2 -35 -2
-50 0 -16 2 -5 4 22 4 28 0 40 -2 28 -4z m-5 -20 c-10 -2 -28 -2 -40 0 -13 2
-5 4 17 4 22 1 32 -1 23 -4z m5 -20 c-13 -2 -35 -2 -50 0 -16 2 -5 4 22 4 28
0 40 -2 28 -4z m5 -24 c-16 -4 -40 -4 -55 1 -22 6 -16 8 27 7 43 0 49 -1 28
-8z m12 -34 c3 -6 -17 -11 -49 -13 -45 -2 -52 0 -42 11 13 16 83 17 91 2z m-2
-102 c-21 -2 -57 -2 -80 0 -24 2 -7 4 37 4 44 0 63 -2 43 -4z m40 -20 c-42 -2
-114 -2 -160 0 -46 1 -11 3 77 3 88 0 125 -2 83 -3z m-5 -20 c-40 -2 -107 -2
-150 0 -43 1 -10 3 72 3 83 0 118 -2 78 -3z"/>
<path d="M3272 3781 c-8 -5 -12 -21 -10 -37 2 -23 8 -29 28 -29 18 0 27 7 34
27 5 15 8 29 5 32 -11 10 -45 15 -57 7z"/>
<path d="M3070 3565 c0 -41 2 -45 25 -45 23 0 25 4 25 45 0 41 -2 45 -25 45
-23 0 -25 -4 -25 -45z"/>
<path d="M3150 3565 c0 -41 2 -45 25 -45 23 0 25 4 25 45 0 41 -2 45 -25 45
-23 0 -25 -4 -25 -45z"/>
<path d="M3230 3565 c0 -41 2 -45 25 -45 23 0 25 4 25 45 0 41 -2 45 -25 45
-23 0 -25 -4 -25 -45z"/>
<path d="M3070 3455 c0 -41 2 -45 25 -45 23 0 25 4 25 45 0 41 -2 45 -25 45
-23 0 -25 -4 -25 -45z"/>
<path d="M3150 3455 c0 -41 2 -45 25 -45 23 0 25 4 25 45 0 41 -2 45 -25 45
-23 0 -25 -4 -25 -45z"/>
<path d="M3230 3455 c0 -41 2 -45 25 -45 23 0 25 4 25 45 0 41 -2 45 -25 45
-23 0 -25 -4 -25 -45z"/>
<path d="M2960 3479 c0 -6 -7 -8 -16 -5 -13 5 -15 0 -12 -33 3 -33 0 -41 -16
-45 -17 -4 -18 -7 -5 -22 11 -14 11 -18 1 -22 -10 -3 -9 -9 4 -24 12 -13 20
-44 25 -96 l6 -77 1 68 2 67 40 0 40 0 0 -100 c0 -55 3 -100 8 -100 4 0 5 45
4 100 l-4 100 137 0 136 0 -3 -100 c-2 -55 0 -100 5 -100 4 0 7 45 7 100 l0
100 40 0 40 0 0 -69 c0 -65 -2 -70 -22 -73 -17 -2 -22 -9 -21 -25 2 -13 -4
-23 -15 -26 -10 -3 -6 -5 11 -6 18 -1 27 4 27 14 0 11 12 15 46 15 37 0 45 -3
40 -15 -4 -11 2 -15 22 -15 24 1 25 2 8 11 -14 9 -15 13 -6 19 13 8 5 30 -11
30 -6 0 -7 -4 -4 -10 4 -6 -17 -9 -57 -8 l-63 1 55 7 c30 4 42 7 26 8 l-28 2
3 79 c3 58 9 84 22 99 14 15 15 21 5 26 -10 5 -10 7 0 12 18 9 14 34 -6 34
-15 0 -17 7 -14 41 3 29 1 40 -7 35 -6 -4 -11 -2 -11 3 0 6 -9 11 -20 11 -11
0 -20 -4 -20 -10 0 -5 -7 -7 -16 -3 -14 5 -16 0 -12 -35 3 -40 -5 -57 -15 -29
-2 6 -8 0 -12 -15 l-7 -28 -124 0 -123 0 -5 33 c-3 17 -7 46 -9 62 -3 19 -5
13 -6 -17 0 -27 -4 -48 -9 -48 -4 0 -6 18 -4 40 3 34 2 39 -12 34 -9 -3 -16
-1 -16 5 0 6 -7 11 -15 11 -8 0 -15 -5 -15 -11z m17 -61 c-2 -13 -4 -3 -4 22
0 25 2 35 4 23 2 -13 2 -33 0 -45z m400 0 c-2 -13 -4 -3 -4 22 0 25 2 35 4 23
2 -13 2 -33 0 -45z m-364 -35 c-18 -2 -48 -2 -65 0 -18 2 -4 4 32 4 36 0 50
-2 33 -4z m395 0 c-15 -2 -42 -2 -60 0 -18 2 -6 4 27 4 33 0 48 -2 33 -4z
m-378 -23 c0 -5 -22 -10 -50 -10 -27 0 -50 5 -50 10 0 6 23 10 50 10 28 0 50
-4 50 -10z m390 0 c0 -5 -20 -10 -45 -10 -25 0 -45 5 -45 10 0 6 20 10 45 10
25 0 45 -4 45 -10z m-178 -7 c-40 -2 -103 -2 -140 0 -37 2 -4 3 73 3 77 0 107
-2 67 -3z m183 -23 c-4 -6 -97 -10 -245 -10 -148 0 -241 4 -245 10 -4 7 80 10
245 10 165 0 249 -3 245 -10z m-127 -27 c-64 -2 -172 -2 -240 0 -68 1 -15 3
117 3 132 0 187 -2 123 -3z"/>
<path d="M3312 3455 c0 -16 2 -22 5 -12 2 9 2 23 0 30 -3 6 -5 -1 -5 -18z"/>
<path d="M3070 3230 c0 -36 3 -40 25 -40 23 0 25 4 25 40 0 36 -2 40 -25 40
-22 0 -25 -4 -25 -40z"/>
<path d="M3150 3230 c0 -36 3 -40 25 -40 23 0 25 4 25 40 0 36 -2 40 -25 40
-22 0 -25 -4 -25 -40z"/>
<path d="M3230 3230 c0 -36 3 -40 25 -40 23 0 25 4 25 40 0 36 -2 40 -25 40
-22 0 -25 -4 -25 -40z"/>
<path d="M3070 3125 c0 -32 2 -35 31 -35 24 0 30 3 25 16 -3 9 -6 24 -6 35 0
14 -7 19 -25 19 -22 0 -25 -4 -25 -35z"/>
<path d="M3150 3125 c0 -32 2 -35 31 -35 24 0 30 3 25 16 -3 9 -6 24 -6 35 0
14 -7 19 -25 19 -22 0 -25 -4 -25 -35z"/>
<path d="M3230 3125 c0 -32 3 -35 28 -35 26 0 28 2 24 35 -3 29 -8 35 -28 35
-21 0 -24 -5 -24 -35z"/>
<path d="M2864 3126 c4 -15 1 -26 -7 -29 -6 -3 6 -5 28 -5 22 0 30 3 18 5 -40
8 -25 23 22 23 33 0 45 -4 45 -15 0 -15 20 -22 20 -7 0 4 3 17 6 30 6 21 4 22
-66 22 -71 0 -72 0 -66 -24z m99 7 c-18 -2 -48 -2 -65 0 -18 2 -4 4 32 4 36 0
50 -2 33 -4z"/>
<path d="M2938 3093 c7 -3 16 -2 19 1 4 3 -2 6 -13 5 -11 0 -14 -3 -6 -6z"/>
<path d="M3403 3093 c9 -2 25 -2 35 0 9 3 1 5 -18 5 -19 0 -27 -2 -17 -5z"/>
<path d="M3098 3073 c7 -3 16 -2 19 1 4 3 -2 6 -13 5 -11 0 -14 -3 -6 -6z"/>
<path d="M3348 3073 c7 -3 16 -2 19 1 4 3 -2 6 -13 5 -11 0 -14 -3 -6 -6z"/>
<path d="M2910 2960 c0 -49 1 -50 30 -50 29 0 30 1 30 50 0 49 -1 50 -30 50
-29 0 -30 -1 -30 -50z"/>
<path d="M3050 2960 c0 -49 1 -50 30 -50 29 0 30 1 30 50 0 49 -1 50 -30 50
-29 0 -30 -1 -30 -50z"/>
<path d="M3142 2963 c3 -46 4 -48 33 -48 29 0 30 2 33 48 l3 47 -36 0 -36 0 3
-47z"/>
<path d="M3240 2960 c0 -49 1 -50 30 -50 29 0 30 1 30 50 0 49 -1 50 -30 50
-29 0 -30 -1 -30 -50z"/>
<path d="M3380 2960 c0 -49 1 -50 30 -50 29 0 30 1 30 50 0 49 -1 50 -30 50
-29 0 -30 -1 -30 -50z"/>
<path d="M3331 2904 c0 -11 3 -14 6 -6 3 7 2 16 -1 19 -3 4 -6 -2 -5 -13z"/>
<path d="M2938 2883 c-26 -4 -28 -8 -28 -49 0 -42 1 -44 30 -44 29 0 30 1 30
50 0 28 -1 49 -2 49 -2 -1 -15 -4 -30 -6z"/>
<path d="M3153 2884 c-8 -4 -13 -24 -13 -50 0 -44 0 -44 36 -44 l35 0 -3 48
c-2 39 -7 47 -23 49 -11 1 -26 -1 -32 -3z"/>
<path d="M3258 2883 c-14 -3 -18 -15 -18 -49 0 -42 1 -44 30 -44 29 0 30 1 30
50 0 51 -3 53 -42 43z"/>
<path d="M3050 2835 c0 -43 1 -45 30 -45 29 0 30 2 30 45 0 43 -1 45 -30 45
-29 0 -30 -2 -30 -45z"/>
<path d="M3380 2835 c0 -43 1 -45 30 -45 29 0 30 2 30 45 0 43 -1 45 -30 45
-29 0 -30 -2 -30 -45z"/>
<path d="M2910 2710 c0 -49 1 -50 30 -50 29 0 30 1 30 50 0 49 -1 50 -30 50
-29 0 -30 -1 -30 -50z"/>
<path d="M3050 2710 c0 -49 1 -50 30 -50 29 0 30 1 30 50 0 49 -1 50 -30 50
-29 0 -30 -1 -30 -50z"/>
<path d="M3140 2710 l0 -50 35 0 35 0 0 50 0 50 -35 0 -35 0 0 -50z"/>
<path d="M3240 2710 c0 -49 1 -50 30 -50 29 0 30 1 30 50 0 49 -1 50 -30 50
-29 0 -30 -1 -30 -50z"/>
<path d="M3380 2710 c0 -49 1 -50 30 -50 29 0 30 1 30 50 0 49 -1 50 -30 50
-29 0 -30 -1 -30 -50z"/>
<path d="M3547 2754 c-4 -4 -7 -29 -7 -55 0 -46 1 -48 28 -46 26 2 27 5 27 52
0 43 -3 50 -20 53 -12 2 -24 0 -28 -4z"/>
<path d="M3634 2736 c-3 -13 -4 -37 -2 -52 2 -22 8 -29 26 -30 12 -1 25 3 29
9 9 15 10 60 0 80 -12 26 -45 21 -53 -7z"/>
<path d="M3737 2754 c-4 -4 -7 -29 -7 -56 0 -47 1 -48 31 -48 l30 0 -3 53 c-3
44 -6 52 -23 55 -12 2 -24 0 -28 -4z"/>
<path d="M3824 2736 c-3 -13 -4 -37 -2 -52 3 -25 7 -29 33 -29 26 1 30 5 33
32 2 18 -2 41 -8 53 -15 28 -48 26 -56 -4z"/>
<path d="M3922 2748 c-5 -7 -9 -31 -8 -53 1 -37 3 -40 31 -40 26 0 30 4 33 29
5 44 -6 76 -27 76 -10 0 -23 -6 -29 -12z"/>
<path d="M4017 2754 c-4 -4 -7 -29 -7 -55 0 -46 1 -48 28 -45 25 3 27 6 27 52
0 42 -3 49 -20 52 -12 2 -24 0 -28 -4z"/>
<path d="M4104 2736 c-3 -13 -4 -37 -2 -52 3 -25 7 -29 33 -29 28 0 30 3 33
38 2 21 -2 45 -9 53 -18 22 -48 17 -55 -10z"/>
<path d="M4204 2747 c-3 -8 -4 -32 -2 -53 3 -34 6 -39 28 -39 23 0 25 3 25 50
0 44 -3 50 -23 53 -13 2 -24 -3 -28 -11z"/>
<path d="M4294 2747 c-3 -8 -4 -32 -2 -53 3 -34 6 -39 31 -41 28 -2 28 -1 25
50 -3 45 -6 52 -26 55 -13 2 -24 -3 -28 -11z"/>
<path d="M4384 2736 c-3 -13 -4 -36 -2 -52 3 -24 8 -28 33 -28 26 0 30 4 33
31 2 18 -2 41 -8 53 -15 28 -48 26 -56 -4z"/>
<path d="M3332 2630 c0 -14 2 -19 5 -12 2 6 2 18 0 25 -3 6 -5 1 -5 -13z"/>
<path d="M2910 2585 c0 -43 1 -45 30 -45 29 0 30 2 30 45 0 43 -1 45 -30 45
-29 0 -30 -2 -30 -45z"/>
<path d="M3050 2585 c0 -43 1 -45 30 -45 29 0 30 2 30 45 0 43 -1 45 -30 45
-29 0 -30 -2 -30 -45z"/>
<path d="M3140 2585 c0 -45 0 -45 35 -45 35 0 35 0 35 45 0 45 0 45 -35 45
-35 0 -35 0 -35 -45z"/>
<path d="M3240 2585 c0 -43 1 -45 30 -45 29 0 30 2 30 45 0 43 -1 45 -30 45
-29 0 -30 -2 -30 -45z"/>
<path d="M3380 2585 c0 -43 1 -45 30 -45 29 0 30 2 30 45 0 43 -1 45 -30 45
-29 0 -30 -2 -30 -45z"/>
<path d="M3540 2581 c0 -50 1 -51 31 -51 30 0 30 1 27 48 -3 43 -5 47 -30 50
-27 3 -28 2 -28 -47z"/>
<path d="M3637 2623 c-4 -3 -7 -26 -7 -50 0 -41 1 -43 29 -43 33 0 39 13 33
68 -3 25 -9 32 -26 32 -13 0 -26 -3 -29 -7z"/>
<path d="M3730 2580 c0 -49 1 -50 30 -50 29 0 30 1 30 50 0 49 -1 50 -30 50
-29 0 -30 -1 -30 -50z"/>
<path d="M3827 2624 c-4 -4 -7 -27 -7 -51 0 -44 0 -44 33 -41 31 3 32 5 32 48
0 41 -2 45 -25 48 -14 2 -29 0 -33 -4z"/>
<path d="M3917 2623 c-2 -4 -4 -26 -3 -48 1 -38 3 -40 34 -43 l33 -3 -3 48
c-3 44 -5 48 -30 51 -14 2 -28 0 -31 -5z"/>
<path d="M4010 2581 c0 -50 1 -51 31 -51 30 0 30 1 27 48 -3 43 -5 47 -30 50
-27 3 -28 2 -28 -47z"/>
<path d="M4107 2624 c-4 -4 -7 -27 -7 -51 0 -44 0 -44 33 -41 31 3 32 5 32 48
0 41 -2 45 -25 48 -14 2 -29 0 -33 -4z"/>
<path d="M4200 2580 c0 -49 1 -50 30 -50 29 0 30 1 30 50 0 49 -1 50 -30 50
-29 0 -30 -1 -30 -50z"/>
<path d="M4297 2623 c-4 -3 -7 -26 -7 -50 0 -41 1 -43 30 -43 29 0 30 1 30 50
0 46 -2 50 -23 50 -13 0 -27 -3 -30 -7z"/>
<path d="M4384 2617 c-3 -8 -4 -30 -2 -49 3 -29 6 -33 33 -33 29 0 30 2 30 45
0 42 -2 45 -28 48 -17 2 -29 -2 -33 -11z"/>
<path d="M3331 2514 c0 -11 3 -14 6 -6 3 7 2 16 -1 19 -3 4 -6 -2 -5 -13z"/>
<path d="M660 2505 c-8 -10 -9 -15 -1 -15 8 0 11 -72 11 -252 0 -138 3 -249 6
-246 3 3 5 121 4 262 l-1 256 51 0 50 0 0 -262 c0 -144 3 -259 6 -256 3 3 5
121 4 262 l-1 256 150 0 c92 0 151 -4 154 -10 3 -6 4 -5 3 2 -2 10 -52 14
-213 16 -178 2 -212 0 -223 -13z"/>
<path d="M5260 2518 c-5 -52 -3 -528 3 -528 4 0 7 117 7 260 l0 260 145 0 146
0 -3 -260 c-2 -143 1 -259 5 -257 5 1 8 118 7 260 l-1 257 51 0 50 0 0 -260
c0 -143 3 -260 8 -260 4 0 6 118 5 262 l-2 263 -210 3 c-116 1 -211 1 -211 0z"/>
<path d="M1530 2250 c0 -145 2 -261 5 -258 3 3 6 119 6 258 0 139 -3 255 -6
258 -3 3 -5 -113 -5 -258z"/>
<path d="M2910 2460 c0 -49 1 -50 30 -50 29 0 30 1 30 50 0 49 -1 50 -30 50
-29 0 -30 -1 -30 -50z"/>
<path d="M3050 2460 c0 -49 1 -50 30 -50 29 0 30 1 30 50 0 49 -1 50 -30 50
-29 0 -30 -1 -30 -50z"/>
<path d="M3147 2503 c-4 -3 -7 -26 -7 -50 0 -43 0 -43 35 -43 l35 0 0 50 c0
48 -1 50 -28 50 -16 0 -32 -3 -35 -7z"/>
<path d="M3240 2460 c0 -49 1 -50 30 -50 29 0 30 1 30 50 0 49 -1 50 -30 50
-29 0 -30 -1 -30 -50z"/>
<path d="M3380 2460 c0 -49 1 -50 30 -50 29 0 30 1 30 50 0 49 -1 50 -30 50
-29 0 -30 -1 -30 -50z"/>
<path d="M5830 2500 c-9 -6 -10 -10 -3 -10 6 0 15 5 18 10 8 12 4 12 -15 0z"/>
<path d="M220 2247 c0 -218 2 -254 15 -254 10 0 12 4 4 13 -6 7 -9 100 -7 253
2 133 0 241 -4 241 -5 0 -8 -114 -8 -253z"/>
<path d="M448 2493 c6 -2 18 -2 25 0 6 3 1 5 -13 5 -14 0 -19 -2 -12 -5z"/>
<path d="M618 2493 c7 -3 16 -2 19 1 4 3 -2 6 -13 5 -11 0 -14 -3 -6 -6z"/>
<path d="M1308 2493 c6 -2 18 -2 25 0 6 3 1 5 -13 5 -14 0 -19 -2 -12 -5z"/>
<path d="M3540 2455 c0 -43 1 -45 30 -45 29 0 30 2 30 45 0 43 -1 45 -30 45
-29 0 -30 -2 -30 -45z"/>
<path d="M3630 2454 c0 -45 0 -45 31 -42 30 3 32 6 33 46 2 41 1 42 -31 42
-32 0 -33 -1 -33 -46z"/>
<path d="M3730 2455 c0 -43 1 -45 30 -45 29 0 30 2 30 45 0 43 -1 45 -30 45
-29 0 -30 -2 -30 -45z"/>
<path d="M3820 2454 c0 -45 0 -45 33 -42 30 3 32 6 35 46 l3 42 -35 0 c-36 0
-36 0 -36 -46z"/>
<path d="M3913 2458 c2 -41 4 -43 35 -46 32 -3 32 -3 32 42 0 46 0 46 -34 46
-34 0 -35 0 -33 -42z"/>
<path d="M4010 2455 c0 -43 1 -45 30 -45 29 0 30 2 30 45 0 43 -1 45 -30 45
-29 0 -30 -2 -30 -45z"/>
<path d="M4100 2454 c0 -45 0 -45 33 -42 30 3 32 6 35 46 l3 42 -35 0 c-36 0
-36 0 -36 -46z"/>
<path d="M4200 2455 c0 -43 1 -45 30 -45 29 0 30 2 30 45 0 43 -1 45 -30 45
-29 0 -30 -2 -30 -45z"/>
<path d="M4290 2455 c0 -43 1 -45 30 -45 29 0 30 2 30 45 0 43 -1 45 -30 45
-29 0 -30 -2 -30 -45z"/>
<path d="M4380 2454 c0 -45 0 -45 32 -42 31 3 33 6 36 46 l3 42 -36 0 c-35 0
-35 0 -35 -46z"/>
<path d="M4808 2258 c2 -216 1 -244 -14 -255 -15 -11 -14 -12 5 -10 21 1 21 4
21 248 0 189 3 249 13 252 6 3 3 6 -8 6 -20 1 -20 -4 -17 -241z"/>
<path d="M5374 2260 c0 -135 2 -190 3 -122 2 67 2 177 0 245 -1 67 -3 12 -3
-123z"/>
<path d="M6115 2245 c0 -140 3 -255 7 -255 4 0 9 115 10 255 2 165 -1 255 -7
255 -6 0 -10 -92 -10 -255z"/>
<path d="M262 2428 c3 -38 6 -43 27 -43 22 0 25 4 25 40 1 37 -1 40 -27 43
-27 3 -28 2 -25 -40z"/>
<path d="M342 2428 c3 -38 6 -43 28 -43 19 0 24 5 23 25 -1 56 -3 60 -29 60
-23 0 -25 -3 -22 -42z"/>
<path d="M422 2428 c3 -38 6 -43 28 -43 22 0 25 5 28 43 3 41 2 42 -28 42 -30
0 -31 -1 -28 -42z"/>
<path d="M502 2428 c3 -38 6 -43 28 -43 22 0 25 5 28 43 3 41 2 42 -28 42 -30
0 -31 -1 -28 -42z"/>
<path d="M584 2456 c-3 -8 -4 -27 -2 -43 2 -22 8 -28 28 -28 22 0 25 5 28 43
3 39 2 42 -23 42 -14 0 -28 -6 -31 -14z"/>
<path d="M700 2424 c0 -42 1 -44 30 -44 29 0 30 2 30 43 0 42 -1 44 -30 45
-29 1 -30 -1 -30 -44z"/>
<path d="M810 2425 c0 -43 1 -45 30 -45 29 0 30 2 30 45 0 43 -1 45 -30 45
-29 0 -30 -2 -30 -45z"/>
<path d="M895 2458 c-3 -7 -4 -26 -2 -43 2 -26 7 -30 35 -33 l33 -3 -3 43 c-3
39 -6 43 -31 46 -16 2 -29 -2 -32 -10z"/>
<path d="M1007 2463 c-2 -4 -3 -24 -3 -43 1 -32 4 -35 31 -35 28 0 30 2 30 40
0 36 -3 40 -27 43 -14 2 -28 0 -31 -5z"/>
<path d="M1130 2424 c0 -41 2 -45 23 -42 18 2 23 10 25 46 3 39 1 42 -22 42
-24 0 -26 -3 -26 -46z"/>
<path d="M1210 2435 c0 -19 -1 -38 -2 -42 -2 -5 9 -9 25 -11 26 -3 27 -2 27
42 0 42 -2 46 -25 46 -22 0 -25 -4 -25 -35z"/>
<path d="M1290 2424 c0 -41 2 -45 23 -42 18 2 23 10 25 46 3 39 1 42 -22 42
-24 0 -26 -3 -26 -46z"/>
<path d="M1370 2425 c0 -41 2 -45 25 -45 23 0 25 4 25 45 0 41 -2 45 -25 45
-23 0 -25 -4 -25 -45z"/>
<path d="M1450 2425 c0 -41 2 -45 25 -45 23 0 25 4 25 45 0 41 -2 45 -25 45
-23 0 -25 -4 -25 -45z"/>
<path d="M4852 2428 c2 -36 7 -44 26 -46 20 -3 22 1 22 42 0 43 -2 46 -26 46
-23 0 -25 -3 -22 -42z"/>
<path d="M4932 2428 c3 -38 6 -43 28 -43 23 0 25 4 25 40 0 36 -3 40 -28 43
-27 3 -28 2 -25 -40z"/>
<path d="M5012 2428 c3 -38 6 -43 28 -43 23 0 25 4 25 40 0 36 -3 40 -28 43
-27 3 -28 2 -25 -40z"/>
<path d="M5092 2428 c3 -38 6 -43 28 -43 23 0 25 4 25 40 0 36 -3 40 -28 43
-27 3 -28 2 -25 -40z"/>
<path d="M5172 2428 c3 -38 6 -43 28 -43 22 0 25 5 28 43 3 41 2 42 -28 42
-30 0 -31 -1 -28 -42z"/>
<path d="M5288 2448 c-7 -48 3 -69 31 -66 23 3 26 7 26 43 0 36 -3 40 -27 43
-21 3 -27 -1 -30 -20z"/>
<path d="M5400 2426 c0 -45 1 -46 31 -46 29 0 30 1 27 43 -3 38 -6 42 -30 45
-27 3 -28 2 -28 -42z"/>
<path d="M5487 2463 c-4 -3 -7 -24 -7 -45 0 -36 2 -38 30 -38 29 0 30 2 30 45
0 40 -2 45 -23 45 -13 0 -27 -3 -30 -7z"/>
<path d="M5594 2457 c-3 -9 -4 -28 -2 -44 3 -24 7 -28 33 -28 28 0 30 2 30 40
0 36 -3 40 -28 43 -17 2 -29 -2 -33 -11z"/>
<path d="M5717 2463 c-2 -5 -2 -25 1 -46 4 -32 8 -38 26 -35 17 2 22 11 24 46
3 39 1 42 -22 42 -14 0 -27 -3 -29 -7z"/>
<path d="M5800 2424 c0 -41 2 -45 23 -42 18 2 23 10 25 46 3 39 1 42 -22 42
-24 0 -26 -3 -26 -46z"/>
<path d="M5880 2424 c0 -41 2 -45 23 -42 18 2 23 10 25 46 3 39 1 42 -22 42
-24 0 -26 -3 -26 -46z"/>
<path d="M5960 2424 c0 -41 2 -45 23 -42 18 2 23 10 25 46 3 39 1 42 -22 42
-24 0 -26 -3 -26 -46z"/>
<path d="M6040 2425 c0 -41 2 -45 25 -45 23 0 25 4 25 45 0 41 -2 45 -25 45
-23 0 -25 -4 -25 -45z"/>
<path d="M971 2414 c0 -11 3 -14 6 -6 3 7 2 16 -1 19 -3 4 -6 -2 -5 -13z"/>
<path d="M4640 2391 c0 -28 5 -40 18 -43 31 -8 42 3 42 43 0 37 -2 39 -30 39
-28 0 -30 -2 -30 -39z"/>
<path d="M2908 2383 c6 -2 18 -2 25 0 6 3 1 5 -13 5 -14 0 -19 -2 -12 -5z"/>
<path d="M3730 2335 c0 -43 1 -45 30 -45 29 0 30 2 30 45 0 43 -1 45 -30 45
-29 0 -30 -2 -30 -45z"/>
<path d="M3820 2336 c0 -46 0 -46 36 -46 l35 0 -3 43 c-3 39 -5 42 -35 45 -33
3 -33 3 -33 -42z"/>
<path d="M3919 2378 c-1 -2 -3 -22 -4 -45 -4 -43 -4 -43 31 -43 34 0 34 0 34
45 0 43 -1 45 -30 45 -16 0 -30 -1 -31 -2z"/>
<path d="M4010 2335 c0 -43 1 -45 30 -45 29 0 30 2 30 45 0 43 -1 45 -30 45
-29 0 -30 -2 -30 -45z"/>
<path d="M4100 2336 c0 -46 0 -46 36 -46 l35 0 -3 43 c-3 39 -5 42 -35 45 -33
3 -33 3 -33 -42z"/>
<path d="M4200 2335 c0 -43 1 -45 30 -45 29 0 30 2 30 45 0 43 -1 45 -30 45
-29 0 -30 -2 -30 -45z"/>
<path d="M4290 2335 c0 -43 1 -45 30 -45 29 0 30 2 30 45 0 43 -1 45 -30 45
-29 0 -30 -2 -30 -45z"/>
<path d="M4380 2336 c0 -46 0 -46 36 -46 l35 0 -3 43 c-3 39 -5 42 -35 45 -33
3 -33 3 -33 -42z"/>
<path d="M260 2310 c0 -36 3 -40 25 -40 14 0 26 6 26 13 7 63 6 67 -23 67 -26
0 -28 -3 -28 -40z"/>
<path d="M340 2310 c0 -36 3 -40 25 -40 14 0 26 6 26 13 7 63 6 67 -23 67 -26
0 -28 -3 -28 -40z"/>
<path d="M420 2310 c0 -38 2 -40 30 -40 28 0 30 2 30 40 0 38 -2 40 -30 40
-28 0 -30 -2 -30 -40z"/>
<path d="M500 2310 c0 -38 2 -40 30 -40 28 0 30 2 30 40 0 38 -2 40 -30 40
-28 0 -30 -2 -30 -40z"/>
<path d="M580 2310 c0 -38 2 -40 30 -40 28 0 30 2 30 40 0 38 -2 40 -30 40
-28 0 -30 -2 -30 -40z"/>
<path d="M700 2310 c0 -38 2 -40 30 -40 28 0 30 2 30 40 0 38 -2 40 -30 40
-28 0 -30 -2 -30 -40z"/>
<path d="M810 2310 c0 -38 2 -40 30 -40 28 0 30 2 30 40 0 38 -2 40 -30 40
-28 0 -30 -2 -30 -40z"/>
<path d="M890 2310 c0 -39 1 -40 35 -40 34 0 35 1 35 40 0 39 -1 40 -35 40
-34 0 -35 -1 -35 -40z"/>
<path d="M1008 2343 c-2 -5 -5 -23 -7 -40 -2 -32 -1 -33 33 -33 35 0 36 1 36
40 0 38 -2 40 -29 40 -17 0 -31 -3 -33 -7z"/>
<path d="M1128 2310 c4 -34 7 -40 28 -40 21 0 24 4 24 40 0 37 -2 40 -28 40
-26 0 -27 -2 -24 -40z"/>
<path d="M1208 2310 c4 -34 7 -40 28 -40 21 0 24 4 24 40 0 37 -2 40 -28 40
-26 0 -27 -2 -24 -40z"/>
<path d="M1290 2310 c0 -36 3 -40 25 -40 23 0 25 4 25 40 0 36 -2 40 -25 40
-22 0 -25 -4 -25 -40z"/>
<path d="M1370 2310 c0 -36 3 -40 25 -40 23 0 25 4 25 40 0 36 -2 40 -25 40
-22 0 -25 -4 -25 -40z"/>
<path d="M1450 2310 c0 -36 3 -40 25 -40 23 0 25 4 25 40 0 36 -2 40 -25 40
-22 0 -25 -4 -25 -40z"/>
<path d="M4850 2310 c0 -36 3 -40 25 -40 23 0 25 4 25 40 0 36 -2 40 -25 40
-22 0 -25 -4 -25 -40z"/>
<path d="M4930 2310 c0 -38 2 -40 30 -40 28 0 30 2 30 40 0 38 -2 40 -30 40
-28 0 -30 -2 -30 -40z"/>
<path d="M5010 2310 c0 -37 2 -40 28 -40 26 0 28 3 30 40 3 38 2 40 -28 40
-28 0 -30 -2 -30 -40z"/>
<path d="M5090 2310 c0 -38 2 -40 30 -40 28 0 30 2 30 40 0 38 -2 40 -30 40
-28 0 -30 -2 -30 -40z"/>
<path d="M5170 2310 c0 -38 2 -40 30 -40 28 0 30 2 30 40 0 38 -2 40 -30 40
-28 0 -30 -2 -30 -40z"/>
<path d="M5289 2333 c0 -10 -2 -28 -5 -40 -3 -20 0 -23 31 -23 34 0 35 1 35
40 0 38 -2 40 -30 40 -22 0 -30 -5 -31 -17z"/>
<path d="M5400 2310 c0 -38 2 -40 30 -40 28 0 30 2 30 40 0 38 -2 40 -30 40
-28 0 -30 -2 -30 -40z"/>
<path d="M5480 2310 c0 -38 2 -40 30 -40 28 0 30 2 30 40 0 38 -2 40 -30 40
-28 0 -30 -2 -30 -40z"/>
<path d="M5597 2343 c-4 -3 -7 -21 -7 -40 0 -31 2 -33 35 -33 30 0 35 3 35 24
0 39 -11 56 -34 56 -13 0 -26 -3 -29 -7z"/>
<path d="M5719 2340 c-1 -5 -1 -17 -1 -25 0 -39 3 -45 27 -45 23 0 25 4 25 40
0 36 -2 40 -25 40 -14 0 -26 -4 -26 -10z"/>
<path d="M5800 2310 c0 -36 3 -40 25 -40 23 0 25 4 25 40 0 36 -2 40 -25 40
-22 0 -25 -4 -25 -40z"/>
<path d="M5880 2310 c0 -36 3 -40 25 -40 23 0 25 4 25 40 0 36 -2 40 -25 40
-22 0 -25 -4 -25 -40z"/>
<path d="M5960 2310 c0 -36 3 -40 25 -40 23 0 25 4 25 40 0 36 -2 40 -25 40
-22 0 -25 -4 -25 -40z"/>
<path d="M6040 2310 c0 -36 3 -40 25 -40 23 0 25 4 25 40 0 36 -2 40 -25 40
-22 0 -25 -4 -25 -40z"/>
<path d="M2930 2305 l0 -35 88 2 87 2 -82 3 c-81 4 -83 5 -83 28 l0 25 234 0
235 0 4 -32 c4 -32 4 -32 5 5 l2 37 -245 0 -245 0 0 -35z"/>
<path d="M4640 2275 c0 -43 1 -45 30 -45 29 0 30 2 30 45 0 43 -1 45 -30 45
-29 0 -30 -2 -30 -45z"/>
<path d="M3143 2273 c20 -2 54 -2 75 0 20 2 3 4 -38 4 -41 0 -58 -2 -37 -4z"/>
<path d="M3333 2273 c9 -2 23 -2 30 0 6 3 -1 5 -18 5 -16 0 -22 -2 -12 -5z"/>
<path d="M3730 2205 c0 -43 1 -45 30 -45 29 0 30 2 30 45 0 43 -1 45 -30 45
-29 0 -30 -2 -30 -45z"/>
<path d="M3820 2206 c0 -44 1 -46 30 -46 23 0 31 5 36 24 10 43 1 61 -34 64
-32 3 -32 3 -32 -42z"/>
<path d="M3915 2213 c1 -21 3 -41 4 -45 0 -5 15 -8 31 -8 29 0 30 2 30 45 0
44 0 45 -34 45 -32 0 -33 -1 -31 -37z"/>
<path d="M4010 2205 c0 -43 1 -45 30 -45 29 0 30 2 30 45 0 43 -1 45 -30 45
-29 0 -30 -2 -30 -45z"/>
<path d="M4100 2204 c0 -45 0 -45 33 -42 30 3 32 6 35 46 l3 42 -35 0 c-36 0
-36 0 -36 -46z"/>
<path d="M4200 2205 c0 -43 1 -45 30 -45 29 0 30 2 30 45 0 43 -1 45 -30 45
-29 0 -30 -2 -30 -45z"/>
<path d="M4290 2205 c0 -43 1 -45 30 -45 29 0 30 2 30 45 0 43 -1 45 -30 45
-29 0 -30 -2 -30 -45z"/>
<path d="M4380 2204 c0 -45 0 -45 33 -42 30 3 32 5 34 46 2 42 1 42 -33 42
-34 0 -34 0 -34 -46z"/>
<path d="M266 2233 c-3 -3 -6 -24 -6 -45 0 -37 2 -39 28 -36 24 3 27 7 27 42
0 32 -4 40 -21 42 -12 2 -24 1 -28 -3z"/>
<path d="M353 2233 c-8 -2 -13 -22 -13 -44 0 -38 2 -40 27 -37 25 3 28 7 27
43 0 40 -12 51 -41 38z"/>
<path d="M427 2233 c-4 -3 -7 -24 -7 -45 0 -37 2 -39 28 -36 23 3 28 8 30 37
2 20 -2 37 -10 42 -16 10 -32 11 -41 2z"/>
<path d="M506 2232 c-3 -3 -6 -23 -6 -44 0 -36 2 -38 30 -38 28 0 30 2 30 40
0 22 -3 40 -7 41 -5 0 -16 2 -25 4 -9 2 -19 0 -22 -3z"/>
<path d="M593 2233 c-8 -3 -13 -22 -13 -44 0 -37 2 -39 31 -39 29 0 30 1 27
42 -3 41 -15 51 -45 41z"/>
<path d="M1128 2213 c-6 -46 1 -63 28 -63 21 0 24 4 24 39 0 26 -5 41 -16 45
-26 10 -32 7 -36 -21z"/>
<path d="M1209 2214 c-1 -13 -2 -32 -3 -41 -1 -13 8 -19 27 -21 27 -3 28 -2
25 40 -3 37 -6 43 -25 44 -17 1 -23 -5 -24 -22z"/>
<path d="M1290 2195 c0 -42 2 -45 26 -45 23 0 25 3 22 42 -2 34 -7 42 -25 44
-21 4 -23 0 -23 -41z"/>
<path d="M1370 2196 c0 -43 2 -46 26 -46 23 0 25 3 22 43 -2 35 -7 43 -25 45
-21 3 -23 -1 -23 -42z"/>
<path d="M1463 2233 c-8 -3 -13 -21 -13 -44 0 -35 3 -39 25 -39 22 0 25 4 25
39 0 38 -12 53 -37 44z"/>
<path d="M4863 2233 c-8 -3 -13 -21 -13 -44 0 -35 3 -39 25 -39 23 0 25 4 25
43 0 43 -7 50 -37 40z"/>
<path d="M4936 2232 c-3 -3 -6 -23 -6 -44 0 -36 2 -38 30 -38 28 0 30 2 30 40
0 22 -3 40 -7 41 -5 0 -16 2 -25 4 -9 2 -19 0 -22 -3z"/>
<path d="M5016 2233 c-3 -3 -6 -24 -6 -45 0 -37 2 -39 28 -36 24 3 27 7 27 42
0 32 -4 40 -21 42 -12 2 -24 1 -28 -3z"/>
<path d="M5095 2232 c-3 -3 -5 -23 -5 -44 0 -36 2 -38 30 -38 28 0 30 2 30 39
0 33 -3 39 -25 43 -13 3 -27 3 -30 0z"/>
<path d="M5177 2234 c-4 -4 -7 -25 -7 -46 0 -36 2 -38 31 -38 29 0 30 1 27 43
-2 33 -7 43 -23 45 -12 2 -24 0 -28 -4z"/>
<path d="M5717 2231 c-1 -3 -2 -22 -2 -41 0 -31 4 -35 28 -38 27 -3 28 -2 25
40 -3 37 -6 43 -26 44 -12 1 -24 -1 -25 -5z"/>
<path d="M5806 2232 c-3 -3 -6 -23 -6 -44 0 -34 3 -38 26 -38 23 0 25 3 22 42
-2 29 -8 42 -20 44 -9 1 -19 -1 -22 -4z"/>
<path d="M5887 2234 c-4 -4 -7 -25 -7 -46 0 -34 3 -38 26 -38 23 0 25 3 22 42
-3 41 -22 60 -41 42z"/>
<path d="M5960 2195 c0 -41 2 -45 25 -45 22 0 25 4 25 39 0 26 -5 41 -16 45
-29 11 -34 6 -34 -39z"/>
<path d="M6040 2193 c0 -39 2 -43 25 -43 23 0 25 4 25 43 0 39 -2 43 -25 43
-23 0 -25 -4 -25 -43z"/>
<path d="M700 2190 c0 -38 2 -40 30 -40 28 0 30 2 30 40 0 38 -2 40 -30 40
-28 0 -30 -2 -30 -40z"/>
<path d="M810 2190 c0 -38 2 -40 30 -40 28 0 30 2 30 40 0 38 -2 40 -30 40
-28 0 -30 -2 -30 -40z"/>
<path d="M890 2190 c0 -39 1 -40 35 -40 34 0 35 1 35 40 0 39 -1 40 -35 40
-34 0 -35 -1 -35 -40z"/>
<path d="M1007 2223 c-4 -3 -7 -21 -7 -40 0 -31 2 -33 35 -33 34 0 35 1 35 40
0 37 -2 40 -28 40 -16 0 -32 -3 -35 -7z"/>
<path d="M5289 2223 c-7 -68 -5 -73 29 -73 31 0 32 2 32 40 0 38 -2 40 -30 40
-16 0 -30 -3 -31 -7z"/>
<path d="M5400 2190 c0 -38 2 -40 30 -40 28 0 30 2 30 40 0 38 -2 40 -30 40
-28 0 -30 -2 -30 -40z"/>
<path d="M5480 2190 c0 -38 2 -40 30 -40 28 0 30 2 30 40 0 38 -2 40 -30 40
-28 0 -30 -2 -30 -40z"/>
<path d="M5590 2191 c0 -40 1 -41 36 -41 35 0 35 1 32 38 -3 34 -6 37 -35 40
-32 3 -33 2 -33 -37z"/>
<path d="M971 2184 c0 -11 3 -14 6 -6 3 7 2 16 -1 19 -3 4 -6 -2 -5 -13z"/>
<path d="M4640 2154 c0 -44 1 -45 28 -42 24 3 27 7 30 46 3 41 2 42 -27 42
-30 0 -31 -1 -31 -46z"/>
<path d="M971 2144 c0 -11 3 -14 6 -6 3 7 2 16 -1 19 -3 4 -6 -2 -5 -13z"/>
<path d="M3730 2085 c0 -43 1 -45 30 -45 29 0 30 2 30 45 0 43 -1 45 -30 45
-29 0 -30 -2 -30 -45z"/>
<path d="M3820 2086 c0 -46 0 -46 36 -46 l35 0 -3 43 c-3 39 -5 42 -35 45 -33
3 -33 3 -33 -42z"/>
<path d="M3917 2123 c-2 -5 -3 -24 -3 -43 1 -32 4 -35 34 -38 32 -3 32 -3 32
42 0 44 -1 46 -29 46 -17 0 -32 -3 -34 -7z"/>
<path d="M4010 2085 c0 -43 1 -45 30 -45 29 0 30 2 30 45 0 43 -1 45 -30 45
-29 0 -30 -2 -30 -45z"/>
<path d="M4100 2085 c0 -45 0 -45 35 -45 35 0 35 0 35 45 0 45 0 45 -35 45
-35 0 -35 0 -35 -45z"/>
<path d="M4200 2085 c0 -43 1 -45 30 -45 29 0 30 2 30 45 0 43 -1 45 -30 45
-29 0 -30 -2 -30 -45z"/>
<path d="M4290 2085 c0 -43 1 -45 30 -45 29 0 30 2 30 45 0 43 -1 45 -30 45
-29 0 -30 -2 -30 -45z"/>
<path d="M4380 2086 c0 -46 0 -46 36 -46 l35 0 -3 43 c-3 39 -5 42 -35 45 -33
3 -33 3 -33 -42z"/>
<path d="M260 2080 c0 -35 3 -40 24 -40 19 0 25 6 29 33 6 40 2 47 -29 47 -21
0 -24 -4 -24 -40z"/>
<path d="M340 2080 c0 -36 3 -40 24 -40 28 0 34 11 28 52 -3 22 -10 28 -28 28
-21 0 -24 -5 -24 -40z"/>
<path d="M420 2080 c0 -38 2 -40 30 -40 28 0 30 2 30 40 0 38 -2 40 -30 40
-28 0 -30 -2 -30 -40z"/>
<path d="M500 2080 c0 -38 2 -40 30 -40 28 0 30 2 30 40 0 38 -2 40 -30 40
-28 0 -30 -2 -30 -40z"/>
<path d="M580 2080 c0 -38 2 -40 30 -40 28 0 30 2 30 40 0 38 -2 40 -30 40
-28 0 -30 -2 -30 -40z"/>
<path d="M700 2074 c0 -44 1 -45 28 -42 24 3 27 7 30 46 3 41 2 42 -27 42 -30
0 -31 -1 -31 -46z"/>
<path d="M812 2078 c3 -38 6 -43 28 -43 22 0 25 5 28 43 3 41 2 42 -28 42 -30
0 -31 -1 -28 -42z"/>
<path d="M898 2113 c-3 -4 -4 -24 -4 -43 1 -32 4 -35 31 -35 28 0 30 2 30 40
0 36 -3 40 -27 43 -14 2 -28 0 -30 -5z"/>
<path d="M973 2070 c0 -30 2 -43 4 -27 2 15 2 39 0 55 -2 15 -4 2 -4 -28z"/>
<path d="M1004 2106 c-3 -8 -4 -27 -2 -43 3 -24 7 -28 33 -28 28 0 30 3 33 43
3 41 2 42 -28 42 -17 0 -33 -6 -36 -14z"/>
<path d="M1130 2080 c0 -36 3 -40 25 -40 23 0 25 4 25 40 0 36 -2 40 -25 40
-22 0 -25 -4 -25 -40z"/>
<path d="M1210 2080 c0 -36 3 -40 25 -40 23 0 25 4 25 40 0 36 -2 40 -25 40
-22 0 -25 -4 -25 -40z"/>
<path d="M1290 2080 c0 -36 3 -40 25 -40 23 0 25 4 25 40 0 36 -2 40 -25 40
-22 0 -25 -4 -25 -40z"/>
<path d="M1370 2080 c0 -36 3 -40 25 -40 23 0 25 4 25 40 0 36 -2 40 -25 40
-22 0 -25 -4 -25 -40z"/>
<path d="M1450 2080 c0 -36 3 -40 25 -40 23 0 25 4 25 40 0 36 -2 40 -25 40
-22 0 -25 -4 -25 -40z"/>
<path d="M4850 2080 c0 -36 3 -40 25 -40 23 0 25 4 25 40 0 36 -2 40 -25 40
-22 0 -25 -4 -25 -40z"/>
<path d="M4930 2080 c0 -38 2 -40 30 -40 28 0 30 2 30 40 0 38 -2 40 -30 40
-28 0 -30 -2 -30 -40z"/>
<path d="M5010 2080 c0 -38 2 -40 30 -40 28 0 30 2 30 40 0 38 -2 40 -30 40
-28 0 -30 -2 -30 -40z"/>
<path d="M5090 2080 c0 -38 2 -40 30 -40 28 0 30 2 30 40 0 38 -2 40 -30 40
-28 0 -30 -2 -30 -40z"/>
<path d="M5170 2080 c0 -38 2 -40 30 -40 28 0 30 2 30 40 0 38 -2 40 -30 40
-28 0 -30 -2 -30 -40z"/>
<path d="M5292 2078 c3 -38 6 -43 28 -43 22 0 25 5 28 43 3 41 2 42 -28 42
-30 0 -31 -1 -28 -42z"/>
<path d="M5400 2074 c0 -44 1 -45 28 -42 24 3 27 7 30 46 3 41 2 42 -27 42
-30 0 -31 -1 -31 -46z"/>
<path d="M5482 2078 c3 -39 6 -43 31 -46 26 -3 27 -2 27 42 0 45 -1 46 -31 46
-29 0 -30 -1 -27 -42z"/>
<path d="M5592 2078 c3 -40 5 -43 33 -43 28 0 30 2 30 40 0 38 -2 40 -33 43
l-33 3 3 -43z"/>
<path d="M5719 2110 c-1 -5 -1 -19 -1 -30 0 -37 2 -40 27 -40 23 0 25 4 25 40
0 36 -2 40 -25 40 -14 0 -25 -4 -26 -10z"/>
<path d="M5800 2080 c0 -36 3 -40 25 -40 23 0 25 4 25 40 0 36 -2 40 -25 40
-22 0 -25 -4 -25 -40z"/>
<path d="M5880 2080 c0 -36 3 -40 25 -40 23 0 25 4 25 40 0 36 -2 40 -25 40
-22 0 -25 -4 -25 -40z"/>
<path d="M5960 2080 c0 -36 3 -40 25 -40 23 0 25 4 25 40 0 36 -2 40 -25 40
-22 0 -25 -4 -25 -40z"/>
<path d="M6040 2080 c0 -36 3 -40 25 -40 23 0 25 4 25 40 0 36 -2 40 -25 40
-22 0 -25 -4 -25 -40z"/>
<path d="M740 2000 c-23 -7 -23 -8 -3 -9 12 -1 25 4 28 9 3 6 5 10 3 9 -2 -1
-14 -5 -28 -9z"/>
<path d="M905 2000 c-18 -8 -17 -9 8 -9 16 -1 26 3 22 9 -3 6 -7 10 -8 9 -1 0
-11 -4 -22 -9z"/>
<path d="M970 1999 c0 -5 5 -7 10 -4 6 3 10 8 10 11 0 2 -4 4 -10 4 -5 0 -10
-5 -10 -11z"/>
<path d="M1070 2006 c0 -2 7 -6 15 -10 8 -3 15 -1 15 4 0 6 -7 10 -15 10 -8 0
-15 -2 -15 -4z"/>
<path d="M5190 2006 c0 -2 7 -7 16 -10 8 -3 12 -2 9 4 -6 10 -25 14 -25 6z"/>
<path d="M5365 2000 c3 -5 8 -10 11 -10 2 0 4 5 4 10 0 6 -5 10 -11 10 -5 0
-7 -4 -4 -10z"/>
<path d="M5417 1999 c7 -7 15 -10 18 -7 3 3 -2 9 -12 12 -14 6 -15 5 -6 -5z"/>
<path d="M5890 1999 c0 -5 5 -7 10 -4 6 3 10 8 10 11 0 2 -4 4 -10 4 -5 0 -10
-5 -10 -11z"/>
<path d="M3753 1993 c15 -2 37 -2 50 0 12 2 0 4 -28 4 -27 0 -38 -2 -22 -4z"/>
<path d="M3888 1993 c29 -2 74 -2 100 0 26 2 2 3 -53 3 -55 0 -76 -1 -47 -3z"/>
<path d="M4093 1993 c26 -2 68 -2 95 0 26 2 4 3 -48 3 -52 0 -74 -1 -47 -3z"/>
<path d="M4263 1993 c9 -2 25 -2 35 0 9 3 1 5 -18 5 -19 0 -27 -2 -17 -5z"/>
<path d="M4338 1993 c6 -2 18 -2 25 0 6 3 1 5 -13 5 -14 0 -19 -2 -12 -5z"/>
<path d="M4518 1993 c7 -3 16 -2 19 1 4 3 -2 6 -13 5 -11 0 -14 -3 -6 -6z"/>
</g>
</svg>
