<?xml version="1.0" standalone="no"?><!DOCTYPE svg PUBLIC "-//W3C//DTD SVG 1.1//EN" "http://www.w3.org/Graphics/SVG/1.1/DTD/svg11.dtd"><svg t="1579956730079" class="icon" viewBox="0 0 1024 1024" version="1.1" xmlns="http://www.w3.org/2000/svg" p-id="1593" xmlns:xlink="http://www.w3.org/1999/xlink" width="200" height="200"><defs><style type="text/css"></style></defs><path d="M618.053943 637.55433 326.365908 637.55433c-8.696504 0-15.760714 7.10918-15.760714 15.850254 0 8.742073 7.053218 15.851253 15.760714 15.851253l291.688036 0c8.719088 0 15.749322-7.10918 15.749322-15.851253C633.803066 644.66351 626.772832 637.55433 618.053943 637.55433L618.053943 637.55433zM618.053943 706.969267 326.365908 706.969267c-8.696504 0-15.760714 7.06521-15.760714 15.828268 0 8.764058 7.053218 15.828268 15.760714 15.828268l291.688036 0c8.719088 0 15.749322-7.06421 15.749322-15.828268C633.803066 714.034477 626.772832 706.969267 618.053943 706.969267L618.053943 706.969267zM618.053943 776.362019 326.365908 776.362019c-8.696504 0-15.760714 7.110179-15.760714 15.828268 0 8.719088 7.053218 15.850254 15.760714 15.850254l291.688036 0c8.719088 0 15.749322-7.131165 15.749322-15.850254C633.803066 783.472198 626.772832 776.362019 618.053943 776.362019L618.053943 776.362019zM653.835484 212.882458l-362.80302 0.021985c-48.489924 0-87.791677 39.458047-87.791677 88.149435l0 505.824251c0 48.691787 39.301753 88.12705 87.791677 88.12705l362.80302 0c48.489924 0 87.780285-39.435263 87.780285-88.12705L741.615769 301.053877C741.604776 252.36249 702.325407 212.904443 653.835484 212.882458L653.835484 212.882458zM706.516566 806.878129c-0.067954 29.175219-23.607994 52.849168-52.704067 52.871953l-362.780035 0c-29.073688-0.022984-52.62572-23.696734-52.670689-52.871953L238.361775 301.053877c0.04497-29.197204 23.597001-52.849568 52.670689-52.916523l362.80302 0c29.073288 0.04497 52.62512 23.719318 52.703067 52.916523l0 505.824251L706.516566 806.878129 706.516566 806.878129zM764.709111 149.939333c-28.537651-16.844979-57.230997-17.873282-66.922427-17.962821-1.453015 0-2.515295 0.033577-3.085908 0.04457L318.57459 132.021082l0 35.300067 377.34516 0 0.468682-0.066955c0 0 0.178879 0 1.375068 0 6.281741-0.066955 29.532977 1.274136 48.971597 13.033563 19.214972 12.071815 36.852814 31.544013 37.356472 79.106166 0 522.736185 0 522.736185 0.032978 522.736185l35.077218 0c0 0 0 0 0-522.736185C819.782571 201.938877 793.469412 166.560864 764.709111 149.939333L764.709111 149.939333zM394.920228 397.452319c0 7.288059 5.544241 13.06714 12.262086 13.06714 0.111524 0 0.223449 0 0.223449 0 2.548672 34.350111 29.610324 68.811146 62.685899 68.811146 33.019413 0 60.226966-34.461035 62.585367-68.811146 0.201863 0 0.211856 0 0.234841 0 6.908316 0 12.452557-5.779082 12.452557-13.06714 0-5.209068-3.006961-9.836331-7.387991-11.803397 2.548272-7.735156 3.911348-15.962577 3.911348-24.636696 0-41.972942-32.125219-76.054635-71.796122-76.054635-39.558579 0-71.706183 34.081892-71.706183 76.054635 0 8.674119 1.38606 16.901541 3.822808 24.636696C397.915597 387.615988 394.920228 392.243451 394.920228 397.452319L394.920228 397.452319zM317.680796 601.22716l304.721199 0c3.700491 0 6.718445-3.018953 6.718445-6.707452l0-23.853827c0-1.810772-0.704522-3.487635-1.866734-4.828726-29.376083-28.447513-65.212586-48.568471-103.619546-58.17036-0.928371-0.446697-2.07959-0.804455-3.207825-0.804455l-3.499627 0c-1.117243 0-2.078591 0.346765-3.195833 0.804455-11.547171 6.260156-27.464779 9.825738-43.639213 9.825738-16.197018 0-32.03568-3.565583-43.71676-9.825738-0.927971-0.45769-1.967266-0.804455-3.129878-0.804455l-2.53728 0c-0.469682 0-1.039695 0.111524-1.509377 0.223449-39.535995 9.255125-76.211129 29.610324-106.156826 58.751566-1.274136 1.341091-1.967266 2.994969-1.967266 4.828726l0 23.853827C311.062684 598.208207 313.980305 601.22716 317.680796 601.22716L317.680796 601.22716z" p-id="1594" fill="#18267d"></path></svg>