<svg xmlns="http://www.w3.org/2000/svg" xmlns:xlink="http://www.w3.org/1999/xlink" viewBox="0 0 1093.93 413.89"><defs><style>.cls-1{fill:none;}.cls-2{fill:#512833;}.cls-3{fill:#934358;}.cls-4{fill:#e5637c;}.cls-5{fill:#fff;}.cls-6{clip-path:url(#clip-path);}</style><clipPath id="clip-path"><rect class="cls-1" x="485.17" y="77.1" width="608.77" height="205.18"/></clipPath></defs><title>资源 1</title><g id="图层_2" data-name="图层 2"><g id="图层_1-2" data-name="图层 1"><g id="Symbol"><polygon class="cls-2" points="366.97 413.89 16.94 350.04 80.79 0 430.82 63.85 366.97 413.89"/><polygon class="cls-3" points="361.31 402.09 7.16 367.7 41.55 13.56 395.69 47.94 361.31 402.09"/><polygon class="cls-4" points="355.81 385.73 0 385.73 0 29.92 355.81 29.92 355.81 385.73"/><path class="cls-5" d="M125.73,276.28q0-3.09,3.86-9.29t7-6.19a41.5,41.5,0,0,1,5,2.94,64.34,64.34,0,0,0,13.31,5.88q8.67,3,20.91,2.95t20.13-7q7.89-7,7.89-18.89t-7-18.58q-7-6.66-27.71-12.55t-30-15q-9.28-9.13-9.29-27.72T144,141.72q14.24-12.54,37.16-12.54a91.16,91.16,0,0,1,28.18,4q12.38,4,12.38,9,0,4-3.56,10.37t-6.35,6.35a31.49,31.49,0,0,1-4-1.86,49.92,49.92,0,0,0-23.69-5.57q-13.17,0-20.44,5.42A16.8,16.8,0,0,0,156.38,171q0,8.67,5.42,13.62t18.43,9q29.1,9,39.48,19.67t10.38,32.21q0,21.53-15.33,35.45t-36.7,13.94q-21.36,0-36.85-6.35t-15.48-12.23Z"/></g><g id="Word"><g class="cls-6"><path class="cls-5" d="M485.05,266.24q0-2.67,3.34-8c2.23-3.56,4.23-5.34,6-5.34a36.3,36.3,0,0,1,4.27,2.53,54.83,54.83,0,0,0,11.49,5.08,56.25,56.25,0,0,0,18,2.54q10.56,0,17.37-6t6.82-16.3q0-10.29-6-16t-23.91-10.82q-17.91-5.07-25.93-13t-8-23.92q0-16,12.29-26.86t32.07-10.82a78.81,78.81,0,0,1,24.32,3.47q10.68,3.48,10.68,7.75,0,3.48-3.07,9c-2.05,3.65-3.87,5.48-5.48,5.48a27.13,27.13,0,0,1-3.47-1.61,43.1,43.1,0,0,0-20.45-4.81q-11.35,0-17.63,4.68a14.49,14.49,0,0,0-6.28,12.16q0,7.49,4.67,11.76t15.9,7.75q25.13,7.76,34.08,17t9,27.79q0,18.57-13.23,30.6a45.43,45.43,0,0,1-31.67,12q-18.44,0-31.8-5.48t-13.36-10.55Z"/></g><path class="cls-5" d="M601.3,245.39V85.58c0-3.91,3.57-5.88,10.69-5.88h1.07c7.12,0,10.69,2,10.69,5.88V243.26q0,19.77,14.43,19.77a38.26,38.26,0,0,0,7.75-.67,35.13,35.13,0,0,1,3.74-.67c1.61,0,2.94,1.65,4,4.95a26.92,26.92,0,0,1,1.6,7.61q0,8-19.5,8a38.06,38.06,0,0,1-23.92-8.15Q601.3,266,601.3,245.39Z"/><path class="cls-5" d="M676.4,276.29v-132q0-5.88,10.69-5.88h1.06q10.7,0,10.69,5.88v132q0,5.88-10.69,5.87h-1.06q-10.7,0-10.69-5.87Z"/><path class="cls-5" d="M753.63,208.78q0,54,34.74,54,17.37,0,34.21-18.44V171.1q-14.43-12-32.34-12h-1.6q-17.11.27-26.06,13.09t-9,36.61Zm70.82,53.45q-19.25,20-42.76,20T744.14,262.5q-14-19.77-14-50.78v-2.4q0-32.88,15-51.45t37.41-18.57a63.81,63.81,0,0,1,40.09,13.63V85.59q0-5.88,10.69-5.88h1.06q10.7,0,10.69,5.88V241.12q0,16,1.34,23.25,1.86,9.88,1.87,10.42c0,2.14-1.7,3.7-5.08,4.68a30.65,30.65,0,0,1-7.88,1.47,9.57,9.57,0,0,1-3.88-.54,5.49,5.49,0,0,1-2-1.86,14.92,14.92,0,0,1-1.47-2.54,21.37,21.37,0,0,1-1.07-3.34c-.36-1.43-.67-2.54-.93-3.34a24.39,24.39,0,0,1-.8-3.75,28.29,28.29,0,0,0-.67-3.34Z"/><path class="cls-5" d="M965.4,200.77q0-42.22-32.07-42.23-34.49,0-37.42,42.23ZM887.9,264.9q-16-17.37-16-53t15.77-54.12q15.76-18.44,44.9-18.44,56.64,0,56.65,69.75c0,1.61-1.07,3.83-3.21,6.68s-4,4.28-5.61,4.28H895.91q1.61,22.19,11.49,32.6T937.07,263a67.08,67.08,0,0,0,33.4-8.56c3.38-1.78,5.26-2.67,5.62-2.67,1.77,0,3.78,1.78,6,5.34s3.34,6.24,3.34,8q0,5.35-14.56,11.23t-33.54,5.87q-33.42,0-49.44-17.37Z"/><path class="cls-5" d="M1003.88,266.24q0-2.67,3.33-8c2.23-3.56,4.23-5.34,6-5.34a35.85,35.85,0,0,1,4.28,2.53,54.83,54.83,0,0,0,11.49,5.08,56.18,56.18,0,0,0,18,2.54q10.56,0,17.37-6t6.82-16.3q0-10.29-6-16t-23.92-10.82q-17.91-5.07-25.92-13t-8-23.92q0-16,12.29-26.86t32.07-10.82a78.76,78.76,0,0,1,24.32,3.47q10.68,3.48,10.69,7.75,0,3.48-3.08,9t-5.47,5.48a26.84,26.84,0,0,1-3.48-1.61,43.09,43.09,0,0,0-20.44-4.81q-11.37,0-17.64,4.68a14.49,14.49,0,0,0-6.28,12.16q0,7.49,4.68,11.76t15.9,7.75q25.11,7.76,34.07,17t9,27.79q0,18.57-13.23,30.6t-31.66,12q-18.45,0-31.81-5.48t-13.35-10.55Z"/><path class="cls-5" d="M702.8,92.28a15.18,15.18,0,1,1-15.18-15.19A15.18,15.18,0,0,1,702.8,92.28Z"/></g></g></g></svg>