<?xml version="1.0" standalone="no"?><!DOCTYPE svg PUBLIC "-//W3C//DTD SVG 1.1//EN" "http://www.w3.org/Graphics/SVG/1.1/DTD/svg11.dtd"><svg t="1580285497627" class="icon" viewBox="0 0 1024 1024" version="1.1" xmlns="http://www.w3.org/2000/svg" p-id="2099" xmlns:xlink="http://www.w3.org/1999/xlink" width="200" height="200"><defs><style type="text/css"></style></defs><path d="M896.213333 498.346667c-5.12 73.386667-61.44 151.893333-173.226666 151.893333h-77.653334c-18.773333 0-34.133333-16.213333-34.133333-34.986667 0-18.773333 15.36-34.986667 34.133333-34.986666 0 0 26.453333 0.853333 77.653334 0.853333 68.266667 0 102.4-43.52 105.813333-87.893333 3.413333-45.226667-25.6-95.573333-96.426667-105.813334a35.072 35.072 0 0 1-23.04-14.506666 37.973333 37.973333 0 0 1-5.12-27.306667c9.386667-38.4-0.853333-69.12-25.6-83.626667-21.333333-11.946667-55.466667-11.946667-84.48 16.213334a33.706667 33.706667 0 0 1-29.013333 9.386666 35.456 35.456 0 0 1-24.746667-17.92c-47.786667-89.6-122.026667-94.72-170.666666-71.68-46.933333 22.186667-84.48 77.653333-55.466667 147.626667 3.413333 8.533333 3.413333 18.773333-0.853333 27.306667s-11.946667 15.36-20.48 17.92c-98.133333 30.72-96.426667 96.426667-93.866667 115.2 5.12 36.693333 34.133333 73.386667 79.36 73.386666h104.106667c18.773333 0 34.133333 15.36 34.133333 34.133334 0 18.773333-15.36 33.28-34.133333 33.28h-104.106667c-73.386667 0-134.826667-54.613333-146.773333-130.56-8.533333-58.88 15.36-137.386667 108.373333-179.2-21.333333-91.306667 30.72-168.96 99.84-201.386667 71.68-34.133333 172.373333-24.746667 239.786667 68.266667 41.813333-23.04 91.306667-24.746667 132.266666-1.706667 34.986667 19.626667 66.56 61.44 64 123.733333 87.893333 29.013333 124.586667 105.813333 120.32 172.373334z m-267.093333 206.506666l-82.773333 82.773334-0.853334-309.76c0-18.773333-15.36-34.986667-34.133333-34.986667-18.773333 0-34.133333 16.213333-34.133333 34.986667l0.853333 308.906666-82.773333-82.773333a34.005333 34.005333 0 0 0-48.64 0c-13.653333 13.653333-13.653333 34.986667 0 48.64l140.8 141.653333c6.826667 6.826667 15.36 10.24 23.893333 10.24 9.386667 0 17.92-3.413333 23.893333-10.24l140.8-140.8c13.653333-13.653333 13.653333-34.986667 0-48.64-11.946667-12.8-33.28-12.8-46.933333 0z" p-id="2100" fill="#888888"></path></svg>